<?xml version="1.0" standalone="no"?>
<!DOCTYPE svg PUBLIC "-//W3C//DTD SVG 1.1//EN" "http://www.w3.org/Graphics/SVG/1.1/DTD/svg11.dtd" >
<svg xmlns="http://www.w3.org/2000/svg" xmlns:xlink="http://www.w3.org/1999/xlink" version="1.1">
<metadata>
Created by FontForge 20170731 at Fri Jan  1 02:30:17 1904
 By Aleksey,,,
 !22! Soft 1992
</metadata>
<defs>
<font id="VantaBold" horiz-adv-x="1149" >
  <font-face 
    font-family="Vanta"
    font-weight="400"
    font-stretch="normal"
    units-per-em="2048"
    panose-1="2 11 5 0 0 0 0 0 0 0"
    ascent="1638"
    descent="-410"
    x-height="1073"
    cap-height="1466"
    bbox="-27 -440 2408 1921"
    underline-thickness="76"
    underline-position="-245"
    unicode-range="U+0020-2219"
  />
<missing-glyph horiz-adv-x="1536" 
d="M256 0v1280h1024v-1280h-1024zM1247 33v1214h-958v-1214h958z" />
    <glyph glyph-name=".notdef" horiz-adv-x="1536" 
d="M256 0v1280h1024v-1280h-1024zM1247 33v1214h-958v-1214h958z" />
    <glyph glyph-name=".null" horiz-adv-x="0" 
 />
    <glyph glyph-name="nonmarkingreturn" horiz-adv-x="600" 
 />
    <glyph glyph-name="space" unicode=" " horiz-adv-x="600" 
 />
    <glyph glyph-name="exclam" unicode="!" horiz-adv-x="717" 
d="M180 1466h303l-53 -1052h-192zM180 297h309v-297h-309v297z" />
    <glyph glyph-name="quotedbl" unicode="&#x22;" horiz-adv-x="987" 
d="M313 874h-147l-53 592h256zM788 874h-147l-53 592h256z" />
    <glyph glyph-name="numbersign" unicode="#" 
d="M1040 629v-158h-229l-70 -471h-168l72 471h-231l-74 -471h-164l72 471h-225v158h247l39 233h-227v162h258l59 442h158l-63 -442h233l64 442h165l-63 -442h203v-162h-230l-30 -233h204zM705 862h-234l-35 -233h232z" />
    <glyph glyph-name="dollar" unicode="$" 
d="M328 471q8 -117 43 -166q35 -51 131 -80v398q-119 34 -211 82q-94 47 -150 126q-55 78 -55 197q0 352 416 412v166h123v-166q241 -27 340 -174q41 -52 55 -101t20 -155h-264q-12 98 -45 143q-35 45 -106 57v-354q223 -68 328.5 -154t105.5 -284q0 -139 -53 -223
q-54 -86 -146 -129q-92 -46 -235 -66v-219h-123v219q-228 29 -330 137q-102 109 -113 334h269zM502 1212q-152 -28 -152 -157q0 -60 35 -97.5t117 -64.5v319zM625 580v-355q159 25 159 178q0 70 -34 111q-37 39 -125 66z" />
    <glyph glyph-name="percent" unicode="%" horiz-adv-x="1839" 
d="M203 1085q0 381 268 381q256 0 256 -358q0 -201 -63 -295q-64 -96 -201 -96q-260 0 -260 368zM365 1081q0 -135 23.5 -188t82.5 -53q94 0 94 254q0 137 -20.5 190t-73.5 53q-57 0 -82 -55q-24 -55 -24 -201zM1198 1440h139l-749 -1440h-144zM1055 342q0 381 268 381
q256 0 256 -354q0 -396 -264 -396q-260 0 -260 369zM1217 342q0 -137 22 -188q23 -52 84 -52q51 0 74 56q20 53 20 192q0 142 -20 197q-21 53 -78 53q-59 0 -80 -57q-22 -60 -22 -201z" />
    <glyph glyph-name="ampersand" unicode="&#x26;" horiz-adv-x="1470" 
d="M426 817q-84 113 -109.5 171.5t-25.5 137.5q0 154 104 248q103 92 269 92q159 0 259.5 -90t100.5 -233q0 -207 -233 -363l208 -256q41 86 72 244h248q-35 -264 -162 -436l264 -324h-336l-102 123q-117 -80 -205 -119t-194 -39q-207 0 -332 117q-127 115 -127 301
q0 146 78 242t223 184zM569 645q-100 -72 -133 -119q-33 -49 -33 -112q0 -82 60 -138q57 -57 143 -57q64 0 115 23q49 22 115 75zM647 950q84 56 112.5 93.5t28.5 86.5q0 52 -32 80q-33 29 -84 29q-54 0 -86 -29q-35 -28 -35 -80q0 -73 96 -180z" />
    <glyph glyph-name="quotesingle" unicode="'" horiz-adv-x="506" 
d="M313 874h-147l-53 592h256z" />
    <glyph glyph-name="parenleft" unicode="(" horiz-adv-x="717" 
d="M449 1466h223q-148 -243 -219.5 -467.5t-71.5 -486.5q0 -166 35 -328q33 -161 100 -321q68 -160 156 -303h-223q-183 264 -269 479t-86 473q0 262 86 477q86 213 269 477z" />
    <glyph glyph-name="parenright" unicode=")" horiz-adv-x="717" 
d="M223 -440h-223q152 250 221 467q70 217 70 485q0 471 -291 954h223q121 -174 195 -313t119 -299q43 -162 43 -342q0 -260 -91 -479q-90 -221 -266 -473z" />
    <glyph glyph-name="asterisk" unicode="*" horiz-adv-x="829" 
d="M297 1260v206h188v-206l197 63l59 -178l-194 -72l121 -162l-148 -108l-131 170l-125 -170l-147 108l121 162l-197 72l61 178z" />
    <glyph glyph-name="plus" unicode="+" horiz-adv-x="1221" 
d="M102 606v201h383v369h201v-369h387v-201h-387v-377h-201v377h-383z" />
    <glyph glyph-name="comma" unicode="," horiz-adv-x="600" 
d="M129 301h305v-260q0 -160 -76 -262q-75 -103 -229 -121v113q88 26 127 78.5t39 150.5h-166v301z" />
    <glyph glyph-name="hyphen" unicode="-" horiz-adv-x="717" 
d="M53 682h565v-264h-565v264z" />
    <glyph glyph-name="period" unicode="." horiz-adv-x="600" 
d="M129 297h305v-297h-305v297z" />
    <glyph glyph-name="slash" unicode="/" horiz-adv-x="600" 
d="M385 1466h172l-414 -1880h-170z" />
    <glyph glyph-name="zero" unicode="0" 
d="M63 709q0 387 123 573q121 184 379 184q490 0 490 -700q0 -213 -35 -385q-37 -174 -148.5 -291t-318.5 -117q-197 0 -305 107q-109 104 -146 270q-39 164 -39 359zM354 709q0 -144 8 -226q9 -84 29 -151q41 -113 170 -113q113 0 160 111q45 110 45 393t-43 390.5
t-158 107.5q-110 0 -151 -78q-60 -105 -60 -434z" />
    <glyph glyph-name="one" unicode="1" 
d="M166 1190q182 4 268 49q86 43 119 201h223v-1440h-287v987h-323v203z" />
    <glyph glyph-name="two" unicode="2" 
d="M57 0q0 190 90 324q91 131 261 264t246.5 215t76.5 211q0 98 -45 153q-47 54 -135 54q-107 0 -152 -66q-47 -65 -53 -221h-274q0 149 29.5 239.5t99.5 163.5q139 129 346 129q141 0 252 -57q108 -57 168 -164q57 -106 57 -246q0 -178 -88 -284q-90 -107 -270.5 -238
t-253.5 -229h610v-248h-965z" />
    <glyph glyph-name="three" unicode="3" 
d="M59 459h273q10 -88 35 -140q24 -51 69 -75q43 -25 111 -25q92 0 145 57q53 58 53 154q0 117 -63 162q-66 43 -252 49v207q162 2 225 47q64 45 64 154q0 81 -47 126.5t-133 45.5q-97 0 -140 -52q-45 -51 -57 -178h-262q6 119 29 189q20 67 71 135q129 151 367 151
q209 0 330 -108q118 -109 118 -291t-159 -291q204 -112 204 -336q0 -209 -135 -338t-358 -129q-135 0 -242 50q-108 47 -170 131q-43 65 -57.5 124.5t-18.5 180.5z" />
    <glyph glyph-name="four" unicode="4" 
d="M45 618l561 822h359v-889h147v-242h-147v-309h-287v309h-633v309zM264 551h414v598z" />
    <glyph glyph-name="five" unicode="5" 
d="M63 389l279 14q27 -100 76 -141q47 -43 133 -43q94 0 150.5 65.5t56.5 178.5q0 125 -53 190q-54 66 -154 66q-107 0 -193 -94l-249 16l106 791h780v-248h-583l-54 -305q119 82 260 82q195 0 314 -125q119 -127 119 -338q0 -238 -138 -381q-137 -144 -366 -144
q-287 0 -412 197q-29 55 -39 90q-12 33 -33 129z" />
    <glyph glyph-name="six" unicode="6" 
d="M340 829q127 127 285 127q127 0 225 -57q98 -59 151 -166q54 -106 54 -244q0 -155 -60 -270q-59 -117 -168 -180q-110 -66 -258 -66q-247 0 -376 179q-130 176 -130 516q0 403 132 602q131 196 397 196q188 0 293 -92q104 -94 137 -289h-281q-34 136 -157 136
q-138 0 -183 -111q-47 -111 -61 -281zM354 471q0 -117 58 -184q55 -68 149 -68q98 0 151.5 65.5t53.5 186.5q0 111 -53 176q-56 66 -152 66q-94 0 -149 -64q-58 -65 -58 -178z" />
    <glyph glyph-name="seven" unicode="7" 
d="M80 1432h1014v-230q-142 -155 -254 -352q-113 -199 -178 -412q-66 -215 -89 -438h-290q4 80 14 160q10 78 22 129q13 51 39 133q64 205 170 385q105 178 260 373h-708v252z" />
    <glyph glyph-name="eight" unicode="8" 
d="M295 780q-186 68 -186 275q0 186 124 299q125 112 328 112q205 0 330 -108q123 -109 123 -285q0 -207 -189 -293q226 -98 226 -350q0 -133 -62 -237q-61 -105 -174 -162.5t-262 -57.5q-219 0 -354 125q-136 123 -136 324q0 246 232 358zM358 434q0 -100 54 -158
q53 -57 145 -57t152 57q57 56 57 150q0 100 -57.5 159.5t-151.5 59.5q-92 0 -145.5 -57.5t-53.5 -153.5zM385 1049q0 -78 51 -127q49 -52 125 -52q80 0 127 47.5t47 126.5q0 82 -47 129.5t-127 47.5q-74 0 -125 -47.5t-51 -124.5z" />
    <glyph glyph-name="nine" unicode="9" 
d="M784 610q-77 -65 -143 -94q-66 -31 -147 -31q-125 0 -224 60q-100 57 -153.5 163.5t-53.5 245.5q0 154 62 271q59 114 170 178q108 63 252 63q278 0 393 -198.5t115 -495.5q0 -401 -129 -600q-131 -199 -398 -199q-184 0 -290 95q-109 94 -136 286h271q26 -73 65 -104
q37 -31 97 -31q135 0 184 109q47 106 65 282zM766 969q0 116 -53 184q-56 68 -160 68q-92 0 -145.5 -64.5t-53.5 -183.5q0 -109 56 -174q55 -68 147 -68q96 0 154 64q55 63 55 174z" />
    <glyph glyph-name="colon" unicode=":" horiz-adv-x="717" 
d="M184 297h301v-297h-301v297zM184 1073h301v-297h-301v297z" />
    <glyph glyph-name="semicolon" unicode=";" horiz-adv-x="717" 
d="M184 1073h301v-297h-301v297zM184 301h301v-260q0 -160 -75.5 -262.5t-225.5 -120.5v113q90 26 129 79q37 52 37 150h-166v301z" />
    <glyph glyph-name="less" unicode="&#x3c;" horiz-adv-x="1221" 
d="M1073 219l-971 432v107l971 436v-158l-776 -331l776 -332v-154z" />
    <glyph glyph-name="equal" unicode="=" horiz-adv-x="1221" 
d="M102 776v185h971v-185h-971zM102 453v188h971v-188h-971z" />
    <glyph glyph-name="greater" unicode="&#x3e;" horiz-adv-x="1221" 
d="M102 1194l975 -436v-107l-975 -432v154l777 332l-777 331v158z" />
    <glyph glyph-name="question" unicode="?" horiz-adv-x="1266" 
d="M731 440h-268q0 117 12 176q12 60 45 107q33 45 90 88q115 88 146 133q28 45 28 123q0 82 -49 133t-139 51q-100 0 -150 -55q-49 -55 -61 -182h-283q7 137 33 215q27 76 90 135q127 131 371 131q233 0 367 -115q133 -114 133 -313q0 -119 -45 -186q-45 -70 -136 -140
q-92 -69 -137 -129q-45 -59 -47 -172zM444 297h306v-297h-306v297z" />
    <glyph glyph-name="at" unicode="@" horiz-adv-x="2001" 
d="M1436 291h184q-129 -166 -264 -242q-137 -76 -334 -76q-207 0 -385 100.5t-279.5 274.5t-101.5 383q0 211 100 387q101 176 277 276.5t385 100.5q145 0 268 -47q121 -47 217 -135q94 -88 148 -201q53 -115 53 -246q0 -231 -143 -391q-68 -74 -172.5 -127t-178.5 -53
q-116 0 -116 104q-88 -98 -209 -98q-144 0 -234 98q-90 99 -90 256q0 125 55 232q54 104 150 166q96 59 211 59q156 0 235 -113l21 105h188l-94 -569q-8 -46 -8 -64q0 -27 31 -27q84 0 150.5 115t66.5 254q0 156 -70 277q-72 120 -194 186q-125 65 -289 65q-266 0 -439 -170
q-172 -170 -172 -436q0 -176 80 -315q78 -139 221.5 -217t331.5 -78q217 0 400 166zM956 524q86 0 143.5 61.5t57.5 153.5q0 76 -43 123q-45 45 -119 45q-77 0 -137 -63q-59 -66 -59 -154q0 -72 45 -119q43 -47 112 -47z" />
    <glyph glyph-name="A" unicode="A" horiz-adv-x="1470" 
d="M37 0l520 1466h344l512 -1466h-323l-103 309h-534l-99 -309h-317zM539 553h368l-184 577z" />
    <glyph glyph-name="B" unicode="B" horiz-adv-x="1470" 
d="M135 1466h641q152 0 230 -16q75 -16 137 -64q141 -106 141 -301q0 -198 -166 -305q215 -88 215 -331q0 -222 -162 -347q-71 -57 -159 -79q-90 -23 -246 -23h-631v1466zM436 1202v-317h303q138 0 189 35q49 32 49 124q0 89 -51 123q-52 35 -181 35h-309zM436 641v-377h295
q168 0 232 41q61 39 61 148q0 112 -57 151q-60 37 -232 37h-299z" />
    <glyph glyph-name="C" unicode="C" horiz-adv-x="1470" 
d="M1372 979h-301q-33 129 -104 190q-74 60 -195 60q-180 0 -280.5 -131t-100.5 -375q0 -156 45 -262q43 -109 125 -166t193 -57q239 0 317 274h301q-14 -100 -39 -162q-24 -63 -73 -131q-181 -246 -510 -246q-308 0 -488 205q-182 203 -182 545q0 235 84 409.5t236.5 268.5
t357.5 94q256 0 426 -139q168 -142 188 -377z" />
    <glyph glyph-name="D" unicode="D" horiz-adv-x="1470" 
d="M135 1466h570q239 0 362 -61q160 -76 232.5 -258t72.5 -389q0 -166 -41 -305q-43 -140 -119 -240q-77 -102 -184 -156q-121 -57 -346 -57h-547v1466zM436 1202v-938h238q90 0 135 8q45 9 88 37q78 53 121 168q41 115 41 268q0 234 -86 349q-43 57 -111 84q-67 24 -188 24
h-238z" />
    <glyph glyph-name="E" unicode="E" horiz-adv-x="1382" 
d="M135 1466h1055v-264h-754v-313h690v-248h-690v-377h785v-264h-1086v1466z" />
    <glyph glyph-name="F" unicode="F" horiz-adv-x="1266" 
d="M135 1466h1030v-264h-729v-336h637v-243h-637v-623h-301v1466z" />
    <glyph glyph-name="G" unicode="G" horiz-adv-x="1614" 
d="M825 543v248h607v-791h-211l-27 184q-86 -106 -195 -157q-108 -54 -249 -54q-293 0 -482 211q-188 209 -188 539q0 229 90 405q88 175 252 271t377 96q264 0 432 -129q166 -129 201 -367h-314q-71 230 -315 230q-191 0 -301.5 -135.5t-110.5 -362.5q0 -223 113 -358
q110 -135 295 -135q291 0 354 305h-328z" />
    <glyph glyph-name="H" unicode="H" horiz-adv-x="1470" 
d="M135 1466h301v-569h582v569h301v-1466h-301v633h-582v-633h-301v1466z" />
    <glyph glyph-name="I" unicode="I" horiz-adv-x="600" 
d="M129 1466h301v-1466h-301v1466z" />
    <glyph glyph-name="J" unicode="J" 
d="M63 551h287v-72q0 -129 37 -184q37 -57 121 -57q106 0 141 63q33 61 33 250v915h301v-860q0 -194 -27 -330q-28 -135 -127 -219q-98 -84 -294 -84q-275 0 -396 158q-76 111 -76 363v57z" />
    <glyph glyph-name="K" unicode="K" horiz-adv-x="1470" 
d="M135 1466h301v-630l596 630h381l-602 -606l639 -860h-383l-483 641l-148 -147v-494h-301v1466z" />
    <glyph glyph-name="L" unicode="L" horiz-adv-x="1266" 
d="M135 1466h301v-1202h713v-264h-1014v1466z" />
    <glyph glyph-name="M" unicode="M" horiz-adv-x="1722" 
d="M135 1466h465l184 -841q11 -45 25 -119q12 -76 31 -160q43 240 53 279l192 841h453v-1466h-283v1210l-272 -1210h-293l-268 1210v-1210h-287v1466z" />
    <glyph glyph-name="N" unicode="N" horiz-adv-x="1470" 
d="M135 0v1466h299l598 -1022v1022h287v-1466h-287l-610 1022v-1022h-287z" />
    <glyph glyph-name="O" unicode="O" horiz-adv-x="1614" 
d="M80 727q0 231 88 406q86 172 248 268q162 94 372 94q154 0 283 -53t219 -150q90 -96 142 -233q49 -137 49 -305q0 -226 -86 -402q-86 -178 -244 -278q-160 -101 -363 -101q-210 0 -370 97q-162 94 -250 264t-88 393zM391 750q0 -213 94 -363q93 -149 295 -149
q181 0 287 139q104 139 104 368q0 228 -102 357q-104 127 -285 127q-114 0 -202 -58q-88 -57 -136 -163q-49 -109 -55 -258z" />
    <glyph glyph-name="P" unicode="P" horiz-adv-x="1382" 
d="M135 1466h604q219 0 320 -75q180 -129 180 -392q0 -262 -172 -397q-66 -43 -141 -61q-78 -21 -199 -21h-291v-520h-301v1466zM436 1202v-418h236q139 0 198 47q60 48 60 156q0 113 -60 164q-59 51 -196 51h-238z" />
    <glyph glyph-name="Q" unicode="Q" horiz-adv-x="1614" 
d="M1327 229l158 -157l-158 -170l-170 170q-149 -99 -369 -99q-208 0 -370 95q-162 92 -250 264q-88 170 -88 399q0 225 88 399q86 175 246 271q159 94 370 94q156 0 285 -51q127 -53 219 -150.5t144 -234.5q49 -137 49 -305q0 -314 -154 -525zM1104 434q67 135 67 311
q0 228 -102 357q-104 127 -285 127q-182 0 -286 -133q-107 -135 -107 -369q0 -229 107 -358q104 -131 282 -131q94 0 170 32l-139 138l150 157z" />
    <glyph glyph-name="R" unicode="R" horiz-adv-x="1470" 
d="M135 1466h645q160 0 236 -16q74 -18 137 -68q152 -114 152 -338q0 -126 -45 -198q-48 -74 -164 -141q86 -37 116 -82q37 -50 45 -121q9 -74 9 -193l4 -4v-8q0 -109 12 -182q12 -76 51 -115h-334q-30 90 -34 233q-4 156 -11 216q-8 57 -59 94q-53 37 -178 37h-281v-580
h-301v1466zM436 1202v-373h287q156 0 215 39q57 39 57 150q0 108 -57 147q-57 37 -215 37h-287z" />
    <glyph glyph-name="S" unicode="S" horiz-adv-x="1382" 
d="M80 459h289q18 -84 59 -137q41 -56 104 -78q62 -25 158 -25q125 0 199 47q72 45 72 123q0 80 -121 123l-449 174q-282 107 -282 363q0 202 145 325q145 121 393 121q268 0 416 -123q145 -123 154 -350h-293q-19 119 -86.5 174t-186.5 55q-108 0 -178 -49t-70 -121
q0 -73 99 -112l459 -174q149 -58 225 -136.5t76 -228.5q0 -102 -48 -194q-47 -95 -137 -160q-76 -53 -168 -78t-223 -25q-364 0 -520 211q-41 56 -57 113q-17 55 -29 162z" />
    <glyph glyph-name="T" unicode="T" horiz-adv-x="1266" 
d="M27 1466h1175v-264h-434v-1202h-301v1202h-440v264z" />
    <glyph glyph-name="U" unicode="U" horiz-adv-x="1470" 
d="M1018 1466h301v-905q0 -147 -21.5 -231t-72.5 -154q-146 -203 -484 -203q-206 0 -338 62q-133 59 -200.5 190t-67.5 336v905h301v-901q0 -178 67.5 -252.5t219.5 -74.5q160 0 227 73q68 74 68 254v901z" />
    <glyph glyph-name="V" unicode="V" horiz-adv-x="1382" 
d="M27 1466h323l250 -833q25 -90 39 -148q14 -57 33 -127q18 70 40.5 158t28.5 117l265 833h309l-512 -1466h-283z" />
    <glyph glyph-name="W" unicode="W" horiz-adv-x="1933" 
d="M27 1466h315l188 -815q39 -227 50 -274q8 45 20 125t23 149l153 815h342l156 -825q8 -47 20 -127q11 -82 21 -152q8 37 25.5 123t31.5 156l199 825h301l-418 -1466h-297l-170 836q-24 157 -49 280q-6 -59 -41 -280l-170 -836h-291z" />
    <glyph glyph-name="X" unicode="X" horiz-adv-x="1382" 
d="M27 0l467 741l-449 725h344l279 -487l278 487h336l-448 -712l481 -754h-354l-293 530l-306 -530h-335z" />
    <glyph glyph-name="Y" unicode="Y" horiz-adv-x="1382" 
d="M27 1466h338l317 -630l305 630h328l-486 -915v-551h-301v551z" />
    <glyph glyph-name="Z" unicode="Z" horiz-adv-x="1266" 
d="M63 248l740 954h-721v264h1083v-249l-739 -953h739v-264h-1102v248z" />
    <glyph glyph-name="bracketleft" unicode="[" horiz-adv-x="717" 
d="M139 1466h484v-249h-197v-1383h197v-248h-484v1880z" />
    <glyph glyph-name="backslash" unicode="\" horiz-adv-x="600" 
d="M176 1466l412 -1880h-174l-410 1880h172z" />
    <glyph glyph-name="bracketright" unicode="]" horiz-adv-x="717" 
d="M530 -414h-481v248h197v1383h-197v249h481v-1880z" />
    <glyph glyph-name="asciicircum" unicode="^" horiz-adv-x="1221" 
d="M414 1022h-123l239 448h117l238 -448h-127l-170 305z" />
    <glyph glyph-name="underscore" unicode="_" 
d="M0 -176h1116v-156h-1116v156z" />
    <glyph glyph-name="grave" unicode="`" horiz-adv-x="717" 
d="M418 1526l133 -297h-197l-233 297h297z" />
    <glyph glyph-name="a" unicode="a" 
d="M98 727q15 373 463 373q334 0 422 -172q23 -35 31 -82q8 -49 8 -141v-539q0 -109 51 -166h-289q-45 59 -49 143q-86 -98 -162 -133q-75 -37 -192 -37q-141 0 -229 90q-89 91 -89 232q0 137 72 219q70 80 215 111q170 39 381 53q0 108 -29 153q-30 43 -141 43
q-92 0 -137 -32q-47 -33 -62 -115h-264zM735 502q-186 -29 -205 -35q-104 -21 -141 -51q-39 -33 -39 -99q0 -51 43 -86q41 -34 105 -34q135 0 186 79q51 80 51 226z" />
    <glyph glyph-name="b" unicode="b" horiz-adv-x="1266" 
d="M135 1466h287v-559q74 103 148.5 148t174.5 45q191 0 305.5 -148.5t114.5 -398.5q0 -174 -53 -305t-149 -203q-99 -72 -232 -72q-96 0 -170 49.5t-139 161.5v-184h-287v1466zM874 539q0 149 -57 233t-162 84q-225 0 -225 -317q0 -320 225 -320q219 0 219 320z" />
    <glyph glyph-name="c" unicode="c" 
d="M1055 690h-283q-22 103 -65 143.5t-123 40.5q-111 0 -170 -88q-60 -90 -60 -251q0 -338 226 -338q77 0 122 47q46 47 70 155h283q-31 -209 -156 -317.5t-334 -108.5q-157 0 -270 65.5t-172 192.5q-60 125 -60 304q0 172 62 301q59 129 174 196q115 68 266 68
q219 0 346 -105q125 -106 144 -305z" />
    <glyph glyph-name="d" unicode="d" horiz-adv-x="1266" 
d="M807 915v551h287v-1466h-287v188q-92 -215 -309 -215q-129 0 -228 70q-98 68 -151 195q-56 124 -56 292q0 166 58 297q55 129 155 201q101 72 232 72q106 0 174 -43t125 -142zM354 535q0 -142 62 -228q61 -88 164 -88q100 0 159 88q60 88 60 236q0 143 -60 229
q-61 84 -159 84q-105 0 -164 -88q-62 -88 -62 -233z" />
    <glyph glyph-name="e" unicode="e" 
d="M358 483q7 -96 31 -159q25 -66 72 -97q45 -30 108 -30q60 0 97 24q34 25 73 92h293q-69 -172 -182 -256q-115 -84 -289 -84q-235 0 -366 150q-132 147 -132 407q0 271 132 420q131 150 366 150q240 0 367 -144.5t127 -420.5q0 -29 -4 -52h-693zM358 668h396
q-9 98 -58 153q-51 53 -139 53q-176 0 -199 -206z" />
    <glyph glyph-name="f" unicode="f" horiz-adv-x="717" 
d="M27 1073h153q0 215 62 307q61 93 264 93q67 0 135 -7v-229q-33 -6 -80 -10t-63 -8q-19 -7 -25 -23q-6 -18 -6 -57v-66h178v-207h-178v-866h-287v866h-153v207z" />
    <glyph glyph-name="g" unicode="g" horiz-adv-x="1266" 
d="M86 -117h305q27 -57 66 -80q39 -22 108 -22q140 0 191 76q51 73 51 274v45q-47 -92 -123 -137q-76 -47 -186 -47q-187 0 -310 151q-125 152 -125 381q0 262 119 420q117 156 316 156q108 0 182 -43q72 -45 127 -146v162h287v-915q0 -181 -11 -252q-12 -74 -51 -139
q-117 -207 -467 -207q-198 0 -321 71q-125 72 -158 252zM354 543q0 -144 62 -224q59 -81 164 -81q104 0 161 81q58 80 58 228q0 145 -58.5 227t-167.5 82q-104 0 -161.5 -82t-57.5 -231z" />
    <glyph glyph-name="h" unicode="h" horiz-adv-x="1266" 
d="M135 1466h287v-536q80 94 147 133q68 37 172 37q103 0 189 -45t125 -125q49 -80 49 -244v-686h-287v633q0 117 -39 170q-41 53 -133 53q-63 0 -113 -29q-51 -28 -73 -77q-23 -37 -29 -97q-8 -59 -8 -194v-459h-287v1466z" />
    <glyph glyph-name="i" unicode="i" horiz-adv-x="600" 
d="M135 1073h287v-1073h-287v1073zM135 1466h287v-264h-287v264z" />
    <glyph glyph-name="j" unicode="j" horiz-adv-x="600" 
d="M12 -207q2 0 10.5 -4t14.5 -4q63 0 82 25q16 22 16 92v1171h287v-1100q0 -163 -10 -225q-13 -63 -50 -102q-79 -86 -241 -86q-19 2 -37 4h-72v229zM135 1202v264h287v-264h-287z" />
    <glyph glyph-name="k" unicode="k" 
d="M135 1466h287v-811l354 418h340l-399 -418l399 -655h-340l-237 471l-117 -125v-346h-287v1466z" />
    <glyph glyph-name="l" unicode="l" horiz-adv-x="600" 
d="M135 1466h287v-1466h-287v1466z" />
    <glyph glyph-name="m" unicode="m" horiz-adv-x="1839" 
d="M135 1073h287v-149q78 100 143 139q64 37 154 37q211 0 276 -185q72 99 146 142q71 43 170 43q166 0 254 -105q86 -104 86 -295v-700h-287v625q0 125 -33 178q-35 53 -119 53q-94 0 -135 -68.5t-41 -236.5v-551h-286v641q0 119 -33 168q-33 47 -115 47q-96 0 -137 -70
q-43 -69 -43 -229v-557h-287v1073z" />
    <glyph glyph-name="n" unicode="n" horiz-adv-x="1266" 
d="M135 1073h287v-162q74 105 147 148q72 41 176 41q113 0 207 -58q92 -57 125 -145q27 -82 27 -229v-668h-287v645q0 109 -41 160t-129 51q-225 0 -225 -309v-547h-287v1073z" />
    <glyph glyph-name="o" unicode="o" horiz-adv-x="1266" 
d="M63 539q0 168 68 297q66 127 195 196q127 68 288 68q164 0 291 -68.5t195 -193.5q65 -127 65 -303q0 -259 -147.5 -410.5t-403.5 -151.5q-254 0 -401 154q-150 152 -150 412zM354 539q0 -158 70 -250t190 -92q121 0 190.5 90t69.5 248q0 155 -69.5 247t-190.5 92
q-120 0 -190 -90t-70 -245z" />
    <glyph glyph-name="p" unicode="p" horiz-adv-x="1266" 
d="M135 1073h287v-145q80 92 156 133q73 39 167 39q199 0 309.5 -146.5t110.5 -410.5q0 -172 -53 -301q-55 -131 -154 -199q-100 -70 -235 -70q-96 0 -166 41q-72 41 -135 140v-568h-287v1487zM647 856q-112 0 -172 -82q-61 -84 -61 -239q0 -154 61 -234q60 -82 172 -82
q109 0 168 82t59 234q0 153 -59 237t-168 84z" />
    <glyph glyph-name="q" unicode="q" horiz-adv-x="1266" 
d="M807 -414v545q-59 -84 -131 -121t-170 -37q-201 0 -322 147.5t-121 399.5q0 258 123 420q121 160 320 160q104 0 176 -43q70 -43 125 -146v162h287v-1487h-287zM354 535q0 -316 230 -316q223 0 223 316q0 321 -223 321q-113 0 -170 -82q-60 -82 -60 -239z" />
    <glyph glyph-name="r" unicode="r" horiz-adv-x="829" 
d="M135 1073h287v-168q51 92 125 144q71 51 147 51h11h28q10 -2 25 -4v-289q-23 2 -41 4h-49q-246 0 -246 -268v-543h-287v1073z" />
    <glyph glyph-name="s" unicode="s" 
d="M63 350h287q19 -84 70 -119q51 -34 153 -34q89 0 142 26q51 27 51 74q0 39 -21.5 54.5t-103.5 39.5l-317 111q-222 73 -222 252q0 151 129 250q127 96 326 96q141 0 250 -47q106 -49 154 -138q34 -53 57 -174h-279q-12 74 -51 105q-41 28 -131 28q-84 0 -131 -24
q-49 -25 -49 -70q0 -41 45 -53l440 -143q88 -31 142 -99q51 -67 51 -157q0 -101 -76 -193q-78 -94 -188 -131q-93 -31 -230 -31q-235 0 -362 99q-129 98 -136 278z" />
    <glyph glyph-name="t" unicode="t" horiz-adv-x="717" 
d="M27 1073h139v277h283v-277h176v-203h-176v-573q0 -49 10 -68q8 -20 35 -26q24 -6 94 -6h37v-215q-111 -9 -166 -9q-178 0 -236 78q-57 76 -57 262v557h-139v203z" />
    <glyph glyph-name="u" unicode="u" horiz-adv-x="1266" 
d="M125 1073h287v-624q0 -125 38.5 -177.5t137.5 -52.5q133 0 176 92t43 242v520h287v-1073h-287v166q-62 -103 -135.5 -148t-186.5 -45q-108 0 -194 54q-88 53 -125 135q-41 80 -41 264v647z" />
    <glyph glyph-name="v" unicode="v" 
d="M27 1073h305l176 -598q24 -80 49 -205q14 58 30.5 113t22.5 92l178 598h306l-389 -1073h-297z" />
    <glyph glyph-name="w" unicode="w" horiz-adv-x="1614" 
d="M27 1073h297l90 -399q10 -49 20 -92q8 -45 19 -103l36 -200l31 200q6 37 14.5 91.5t16.5 103.5l74 399h313l80 -399q8 -49 18 -109q11 -59 15 -86l34 -200l33 200q10 39 23 92q10 54 20 103l90 399h287l-305 -1073h-299l-82 389q-12 76 -33 184q-20 107 -39 203
q-30 -149 -71 -387l-91 -389h-294z" />
    <glyph glyph-name="x" unicode="x" 
d="M557 354q-31 -78 -90 -178l-105 -176h-335l362 543l-340 530h340q72 -123 109 -190q34 -68 59 -144q10 31 47 101q35 69 76 143q39 74 47 90h346l-346 -530l367 -543h-340l-103 176q-49 78 -94 178z" />
    <glyph glyph-name="y" unicode="y" 
d="M340 1073l172 -606q27 -78 53 -207q4 23 14.5 64t20.5 82q10 38 14 61l177 606h303l-353 -1001q-120 -373 -202 -449q-64 -63 -222 -63q-30 2 -65 4q-37 2 -76 2v227q19 0 49 -4q31 -4 45 -4q66 0 97 35q28 33 51 131l-391 1122h313z" />
    <glyph glyph-name="z" unicode="z" horiz-adv-x="1036" 
d="M45 225l557 609h-520v239h864v-239l-547 -592h562v-242h-916v225z" />
    <glyph glyph-name="braceleft" unicode="{" horiz-adv-x="829" 
d="M358 508q103 -25 144 -80t41 -168v-489q0 -170 170 -211h-107q-180 0 -264 53q-86 51 -86 221v471q0 90 -39 137t-123 66q162 45 162 205v504q0 157 96 204q94 45 266 45h95q-17 -8 -27 -8q-143 -47 -143 -207v-510q0 -104 -39 -151q-39 -49 -146 -82z" />
    <glyph glyph-name="bar" unicode="|" horiz-adv-x="600" 
d="M203 1466h159v-1761h-159v1761z" />
    <glyph glyph-name="braceright" unicode="}" horiz-adv-x="829" 
d="M426 508q-104 31 -141 82q-39 49 -39 151v510q0 97 -39 138q-41 41 -135 77h94q180 0 272 -43t92 -206v-504q0 -86 39 -133.5t125 -71.5q-164 -35 -164 -203v-471q0 -115 -41 -174q-43 -61 -118.5 -80.5t-190.5 -19.5h-108q174 41 174 211v489q0 111 41 168q39 55 139 80
z" />
    <glyph glyph-name="asciitilde" unicode="~" horiz-adv-x="1221" 
d="M1006 1356l75 -56q-80 -133 -127 -190q-47 -59 -137 -59q-45 0 -112 26q-68 27 -123 56q-56 26 -103 45q-47 16 -106 16q-60 0 -105 -35q-45 -37 -88 -119l-74 60q87 157 140 209q51 51 131 51q82 0 223 -70q141 -69 217 -69q64 0 105 28q39 29 84 107z" />
    <glyph glyph-name="Agrave" horiz-adv-x="600" 
d="M479 143l-303 256v320l303 246v-271l-184 -137l184 -139v-275z" />
    <glyph glyph-name="quoteleft" horiz-adv-x="553" 
d="M418 934h-279v209q0 315 279 352v-109q-68 -8 -109 -59t-41 -125h150v-268z" />
    <glyph glyph-name="quoteright" horiz-adv-x="553" 
d="M139 1466h279v-204q0 -322 -279 -357v109q74 12 113 61t39 127h-152v264z" />
    <glyph glyph-name="quotedblleft" horiz-adv-x="1014" 
d="M844 934h-283v209q0 315 283 352v-109q-72 -6 -113 -57q-41 -53 -41 -127h154v-268zM440 934h-274v209q0 315 274 352v-109q-67 -8 -106 -59t-39 -125h145v-268z" />
    <glyph glyph-name="quotedblright" horiz-adv-x="1014" 
d="M166 1466h274v-204q0 -324 -274 -357v109q147 22 147 188h-147v264zM561 1466h283v-204q0 -322 -283 -357v109q156 22 156 188h-156v264z" />
    <glyph glyph-name="_extra1" horiz-adv-x="1382" 
d="M135 1466h604q219 0 320 -75q180 -129 180 -392q0 -262 -172 -397q-66 -43 -141 -61q-78 -21 -199 -21h-291v-520h-301v1466zM436 1202v-418h236q139 0 198 47q60 48 60 156q0 113 -60 164q-59 51 -196 51h-238z" />
    <glyph glyph-name="endash" horiz-adv-x="1239" 
d="M0 674h1116v-238h-1116v238z" />
    <glyph glyph-name="emdash" horiz-adv-x="2163" 
d="M0 674h2009v-238h-2009v238z" />
    <glyph glyph-name="_extra2" 
d="M63 350h287q19 -84 70 -119q51 -34 153 -34q89 0 142 26q51 27 51 74q0 39 -21.5 54.5t-103.5 39.5l-317 111q-222 73 -222 252q0 151 129 250q127 96 326 96q141 0 250 -47q106 -49 154 -138q34 -53 57 -174h-279q-12 74 -51 105q-41 28 -131 28q-84 0 -131 -24
q-49 -25 -49 -70q0 -41 45 -53l440 -143q88 -31 142 -99q51 -67 51 -157q0 -101 -76 -193q-78 -94 -188 -131q-93 -31 -230 -31q-235 0 -362 99q-129 98 -136 278z" />
    <glyph glyph-name="trademark" horiz-adv-x="2091" 
d="M1933 1466v-878h-188v704l-268 -704h-117l-260 704v-704h-189v878h310l196 -516l211 516h305zM807 1466v-174h-268v-704h-211v704h-269v174h748z" />
    <glyph glyph-name="Atilde" horiz-adv-x="600" 
d="M193 965l301 -248v-326l-301 -248v271l184 139l-184 141v271z" />
    <glyph glyph-name="ydieresis" unicode="&#xa1;" horiz-adv-x="1311" 
d="M1255 1466l-682 -1466h-331l237 483l-434 983h344l256 -653l266 653h344zM655 1567q-155 0 -252 88q-98 86 -98 217h234q0 -41 36 -70q37 -30 84 -30q48 0 84 28q37 29 37 72h234q0 -131 -101 -217q-102 -88 -258 -88z" />
    <glyph glyph-name="Ydieresis" unicode="&#xa2;" horiz-adv-x="1130" 
d="M340 1073l172 -606q27 -78 53 -207q4 23 14.5 64t20.5 82q10 38 14 61l177 606h303l-353 -1001q-120 -373 -202 -449q-64 -63 -222 -63q-30 2 -65 4q-37 2 -76 2v227q19 0 49 -4q31 -4 45 -4q66 0 97 35q28 33 51 131l-391 1122h313zM557 1198q-135 0 -215 80
q-82 78 -82 188h215q0 -14 25 -41q24 -26 57 -26q35 0 59 26q25 27 25 41h211q0 -108 -80 -188t-215 -80z" />
    <glyph glyph-name="lozenge" unicode="&#xa3;" horiz-adv-x="987" 
d="M166 264h274v-205q0 -317 -274 -356v109q147 22 147 188h-147v264zM561 264h283v-205q0 -315 -283 -356v109q156 22 156 188h-156v264z" />
    <glyph glyph-name="caron" unicode="&#xa4;" horiz-adv-x="1171" 
d="M911 498l162 -158l-145 -147l-160 157q-68 -35 -104 -45q-39 -10 -107 -10q-63 0 -102 10t-101 45l-161 -157l-144 147l154 158q-35 61 -45 102q-11 39 -11 105q0 67 13 108q10 39 43 98l-154 162l144 144l161 -162q95 61 203 61q109 0 211 -61l160 162l145 -144
l-162 -162q35 -53 46.5 -94t11.5 -112q0 -72 -11 -109q-10 -39 -47 -98zM557 539q74 0 125 51q49 49 49 123q0 65 -49 112q-51 45 -117 45q-73 0 -127 -47q-53 -47 -53 -110q0 -70 51 -121q49 -53 121 -53z" />
    <glyph glyph-name="brokenbar" unicode="&#xa6;" horiz-adv-x="600" 
d="M203 1466h159v-1761h-159v1761z" />
    <glyph glyph-name="section" unicode="&#xa7;" horiz-adv-x="1239" 
d="M248 915q-41 48 -58 76q-18 29 -26 66q-10 35 -10 88q0 153 116 252q117 98 295 98q199 0 312 -106q110 -107 110 -304h-270q-6 185 -148 185q-55 0 -90 -33t-35 -80t45 -92q43 -45 119 -94t109 -70q180 -119 268 -203q88 -86 88 -223q0 -104 -43 -174t-164 -158
q54 -63 72 -108t18 -107q0 -149 -114.5 -245.5t-290.5 -96.5q-193 0 -305.5 108.5t-116.5 293.5h274q13 -97 48 -135q32 -41 100 -41q55 0 92 30q35 29 35 78q0 43 -43 86t-100 82q-60 39 -109 70l-178 110q-203 135 -203 332q0 102 41 168q41 63 162 147zM399 791
q-55 -48 -73 -80q-21 -35 -21 -82q0 -39 31 -76q29 -37 74 -66.5t79 -52.5l228 -155q94 88 94 157q0 53 -39 94q-41 41 -172 125z" />
    <glyph glyph-name="guilsinglright" unicode="&#xa8;" horiz-adv-x="1425" 
d="M135 1466h1055v-264h-754v-313h690v-248h-690v-377h785v-264h-1086v1466zM377 1896h225v-258h-225v258zM754 1896h225v-258h-225v258z" />
    <glyph glyph-name="copyright" unicode="&#xa9;" horiz-adv-x="1655" 
d="M1481 731q0 -199 -99 -369q-100 -172 -270 -270q-172 -100 -371 -100q-200 0 -370 100q-172 98 -271 270q-100 170 -100 369q0 201 99.5 371t271.5 270q170 98 370 98q199 0 371 -98q170 -100 269.5 -270t99.5 -371zM1331 735q0 158 -78.5 291t-215 213t-296.5 80
q-159 0 -295 -80q-135 -80 -213.5 -213t-78.5 -291q0 -241 172 -409t413 -168q246 0 420 168q172 168 172 409zM956 600h170q-14 -131 -110 -213q-98 -82 -244 -82q-182 0 -297 125q-117 123 -117 315q0 187 115 308q115 118 295 118q143 0 238 -71q92 -72 120 -211h-170
q-16 69 -63 106t-121 37q-110 0 -176 -78q-68 -80 -68 -209q0 -127 72 -215q70 -90 176 -90q72 0 123 47q51 45 57 113z" />
    <glyph glyph-name="guillemotleft" unicode="&#xab;" horiz-adv-x="1104" 
d="M924 143l-301 256v320l301 246v-271l-183 -137l183 -139v-275zM494 143l-301 256v320l301 246v-271l-181 -137l181 -139v-275z" />
    <glyph glyph-name="logicalnot" unicode="&#xac;" horiz-adv-x="1356" 
d="M102 467v151h975v-618h-157v467h-818z" />
    <glyph glyph-name="softhyphen" unicode="&#xad;" 
d="M0 -176h1116v-156h-1116v156z" />
    <glyph glyph-name="registered" unicode="&#xae;" horiz-adv-x="1655" 
d="M741 -8q-200 0 -370 100q-172 98 -271 270q-100 170 -100 369q0 201 99.5 371t271.5 270q170 98 370 98q199 0 371 -98q170 -100 269.5 -270t99.5 -371q0 -199 -99 -369q-100 -172 -270 -270q-172 -100 -371 -100zM741 1319q-159 0 -295 -80q-135 -80 -213.5 -213
t-78.5 -291q0 -241 172 -409t413 -168q246 0 420 168q172 168 172 409q0 158 -78.5 291t-215 213t-296.5 80zM434 1139h357q294 0 294 -238q0 -67 -22.5 -106t-79.5 -78q51 -31 66 -64q12 -32 18 -151q6 -107 12 -129.5t33 -48.5h-205q-18 63 -18 135q-6 123 -27 153
q-20 29 -108 29h-144v-317h-176v815zM610 788h156q80 0 111 21q28 20 28 76q0 55 -28 76q-29 18 -111 18h-156v-191z" />
    <glyph glyph-name="integral" unicode="&#xaf;" horiz-adv-x="901" 
d="M471 1884h301v-297h-301v297zM12 1884h301v-297h-301v297zM246 1466h301v-1466h-301v1466z" />
    <glyph glyph-name="degree" unicode="&#xb0;" 
d="M928 1126q0 -100 -49.5 -186t-133.5 -135q-86 -51 -188 -51q-149 0 -258 108q-111 107 -111 256q0 101 52 189q49 88 135 139q84 49 182 49q100 0 186 -47q86 -49 136 -135q49 -88 49 -187zM768 1118q0 88 -61 150q-64 59 -154 59q-82 0 -141 -59q-62 -62 -62 -142
q0 -79 62 -141q61 -61 145 -61t147.5 59t63.5 135z" />
    <glyph glyph-name="plusminus" unicode="&#xb1;" 
d="M72 625v204h387v347h200v-347h385v-204h-385v-357h-200v357h-387zM72 0v201h972v-201h-972z" />
    <glyph glyph-name="germandbls" unicode="&#xb2;" horiz-adv-x="668" 
d="M129 1466h301v-1466h-301v1466zM129 1884h301v-297h-301v297z" />
    <glyph glyph-name="threesuperior" unicode="&#xb3;" horiz-adv-x="600" 
d="M135 1073h287v-1073h-287v1073zM135 1466h287v-264h-287v264z" />
    <glyph glyph-name="acute.0" unicode="&#xb4;" horiz-adv-x="553" 
d="M139 1466h279v-204q0 -322 -279 -357v109q74 12 113 61t39 127h-152v264z" />
    <glyph glyph-name="paragraph" unicode="&#xb6;" horiz-adv-x="1221" 
d="M489 -291v981q-186 4 -294.5 102.5t-108.5 280.5q0 219 131 307q131 86 352 86h512v-151h-82v-1606h-192v1606h-125v-1606h-193z" />
    <glyph glyph-name="bullet" unicode="&#xb7;" 
d="M399 573q0 80 55.5 137.5t137.5 57.5q86 0 141 -57.5t55 -137.5q0 -73 -57 -133q-57 -59 -139 -59q-78 0 -135 59q-58 60 -58 133z" />
    <glyph glyph-name="fi" unicode="&#xb8;" 
d="M358 483q7 -96 31 -159q25 -66 72 -97q45 -30 108 -30q60 0 97 24q34 25 73 92h293q-69 -172 -182 -256q-115 -84 -289 -84q-235 0 -366 150q-132 147 -132 407q0 271 132 420q131 150 366 150q240 0 367 -144.5t127 -420.5q0 -29 -4 -52h-693zM358 668h396
q-9 98 -58 153q-51 53 -139 53q-176 0 -199 -206zM256 1507h229v-264h-229v264zM633 1507h229v-264h-229v264z" />
    <glyph glyph-name="guilsinglleft" unicode="&#xb9;" horiz-adv-x="2118" 
d="M135 0v1466h299l598 -1022v1022h287v-1466h-287l-610 1022v-1022h-287zM1395 1161q0 150 90 246q88 96 233 96q156 0 244 -92t88 -250q0 -151 -90 -243.5t-242 -92.5q-149 0 -235 90q-88 91 -88 246zM1593 1161q0 -80 35 -127t94 -47q125 0 125 174q0 172 -125 172
q-59 0 -94 -45q-35 -47 -35 -127zM1399 573v144h647v-144h-647z" />
    <glyph glyph-name="guillemotright" unicode="&#xbb;" horiz-adv-x="1104" 
d="M174 143v275l180 139l-180 137v271l301 -246v-320zM602 143v275l182 139l-182 137v271l303 -246v-320z" />
    <glyph glyph-name="divide" unicode="&#xbc;" 
d="M72 606v201h972v-201h-972zM434 489h248v-247h-248v247zM434 1165h248v-245h-248v245z" />
    <glyph glyph-name="dieresis" unicode="&#xbd;" horiz-adv-x="1221" 
d="M125 995l139 144l293 -299l299 299l135 -144l-291 -295l291 -292l-135 -144l-299 297l-293 -297l-139 144l297 292z" />
    <glyph glyph-name="ellipsis" unicode="&#xbe;" horiz-adv-x="1956" 
d="M184 297h305v-297h-305v297zM856 297h305v-297h-305v297zM1526 297h301v-297h-301v297z" />
    <glyph glyph-name="ordfeminine" unicode="&#xbf;" horiz-adv-x="829" 
d="M479 1466h287v-264h-287v264zM53 1466h287v-264h-287v264zM260 1073h287v-1073h-287v1073z" />
    <glyph glyph-name="Adieresis" unicode="&#xc0;" horiz-adv-x="1520" 
d="M37 0l520 1466h344l512 -1466h-323l-103 309h-534l-99 -309h-317zM539 553h368l-184 577z" />
    <glyph glyph-name="Adieresis" unicode="&#x410;" horiz-adv-x="1520" 
d="M37 0l520 1466h344l512 -1466h-323l-103 309h-534l-99 -309h-317zM539 553h368l-184 577z" />
    <glyph glyph-name="Aring" unicode="&#xc1;" horiz-adv-x="1470" 
d="M135 1466h973v-264h-672v-317h303q203 0 338 -62q135 -61 197 -159q59 -101 59 -215q0 -222 -162 -347q-71 -57 -159 -79q-90 -23 -246 -23h-631v1466zM436 641v-377h295q168 0 232 41q61 39 61 148q0 112 -57 151q-60 37 -232 37h-299z" />
    <glyph glyph-name="Aring" unicode="&#x411;" horiz-adv-x="1470" 
d="M135 1466h973v-264h-672v-317h303q203 0 338 -62q135 -61 197 -159q59 -101 59 -215q0 -222 -162 -347q-71 -57 -159 -79q-90 -23 -246 -23h-631v1466zM436 641v-377h295q168 0 232 41q61 39 61 148q0 112 -57 151q-60 37 -232 37h-299z" />
    <glyph glyph-name="Ccedilla" unicode="&#xc2;" horiz-adv-x="1470" 
d="M135 1466h641q152 0 230 -16q75 -16 137 -64q141 -106 141 -301q0 -198 -166 -305q215 -88 215 -331q0 -222 -162 -347q-71 -57 -159 -79q-90 -23 -246 -23h-631v1466zM436 1202v-317h303q138 0 189 35q49 32 49 124q0 89 -51 123q-52 35 -181 35h-309zM436 641v-377h295
q168 0 232 41q61 39 61 148q0 112 -57 151q-60 37 -232 37h-299z" />
    <glyph glyph-name="Ccedilla" unicode="&#x412;" horiz-adv-x="1470" 
d="M135 1466h641q152 0 230 -16q75 -16 137 -64q141 -106 141 -301q0 -198 -166 -305q215 -88 215 -331q0 -222 -162 -347q-71 -57 -159 -79q-90 -23 -246 -23h-631v1466zM436 1202v-317h303q138 0 189 35q49 32 49 124q0 89 -51 123q-52 35 -181 35h-309zM436 641v-377h295
q168 0 232 41q61 39 61 148q0 112 -57 151q-60 37 -232 37h-299z" />
    <glyph glyph-name="Eacute" unicode="&#xc3;" horiz-adv-x="1059" 
d="M436 0h-301v1466h819v-264h-518v-1202z" />
    <glyph glyph-name="Eacute" unicode="&#x413;" horiz-adv-x="1059" 
d="M436 0h-301v1466h819v-264h-518v-1202z" />
    <glyph glyph-name="Ntilde" unicode="&#xc4;" horiz-adv-x="1542" 
d="M176 264v821q0 193 143 301q66 48 142 64t225 16h606v-1202h148v-264h-1399v264h135zM479 264h512v934h-278q-127 0 -181 -35q-53 -35 -53 -123v-776z" />
    <glyph glyph-name="Ntilde" unicode="&#x414;" horiz-adv-x="1542" 
d="M176 264v821q0 193 143 301q66 48 142 64t225 16h606v-1202h148v-264h-1399v264h135zM479 264h512v934h-278q-127 0 -181 -35q-53 -35 -53 -123v-776z" />
    <glyph glyph-name="Odieresis" unicode="&#xc5;" horiz-adv-x="1425" 
d="M135 1466h1055v-264h-754v-313h690v-248h-690v-377h785v-264h-1086v1466z" />
    <glyph glyph-name="Odieresis" unicode="&#x415;" horiz-adv-x="1425" 
d="M135 1466h1055v-264h-754v-313h690v-248h-690v-377h785v-264h-1086v1466z" />
    <glyph glyph-name="Udieresis" unicode="&#xc6;" horiz-adv-x="2552" 
d="M1094 0v494l-144 147l-483 -641h-387l639 860l-602 606h381l596 -630v630h301v-630l596 630h379l-603 -606l641 -860h-389l-481 641l-143 -147v-494h-301z" />
    <glyph glyph-name="Udieresis" unicode="&#x416;" horiz-adv-x="2552" 
d="M1094 0v494l-144 147l-483 -641h-387l639 860l-602 606h381l596 -630v630h301v-630l596 630h379l-603 -606l641 -860h-389l-481 641l-143 -147v-494h-301z" />
    <glyph glyph-name="aacute" unicode="&#xc7;" horiz-adv-x="1356" 
d="M659 0q-208 0 -342 78q-135 76 -192 183.5t-57 191.5h321q0 -103 76 -150t194 -47q261 0 261 197q0 106 -54 147q-53 41 -172 41h-121v244h140q57 0 108 47q49 45 49 112q0 168 -206 168q-103 0 -164 -41q-64 -43 -64 -127h-315q0 138 137 281q137 141 428 141
q115 0 203 -28q86 -29 154.5 -84.5t103.5 -122.5q33 -68 33 -146q0 -108 -37 -178q-39 -71 -125 -127q110 -47 162 -125q49 -77 49 -206q0 -146 -90 -248q-92 -103 -226.5 -152t-253.5 -49z" />
    <glyph glyph-name="aacute" unicode="&#x417;" horiz-adv-x="1356" 
d="M659 0q-208 0 -342 78q-135 76 -192 183.5t-57 191.5h321q0 -103 76 -150t194 -47q261 0 261 197q0 106 -54 147q-53 41 -172 41h-121v244h140q57 0 108 47q49 45 49 112q0 168 -206 168q-103 0 -164 -41q-64 -43 -64 -127h-315q0 138 137 281q137 141 428 141
q115 0 203 -28q86 -29 154.5 -84.5t103.5 -122.5q33 -68 33 -146q0 -108 -37 -178q-39 -71 -125 -127q110 -47 162 -125q49 -77 49 -206q0 -146 -90 -248q-92 -103 -226.5 -152t-253.5 -49z" />
    <glyph glyph-name="agrave" unicode="&#xc8;" horiz-adv-x="1520" 
d="M1333 0h-284v1022l-613 -1022h-282v1466h282v-1022l600 1022h297v-1466z" />
    <glyph glyph-name="agrave" unicode="&#x418;" horiz-adv-x="1520" 
d="M1333 0h-284v1022l-613 -1022h-282v1466h282v-1022l600 1022h297v-1466z" />
    <glyph glyph-name="acircumflex" unicode="&#xc9;" horiz-adv-x="1542" 
d="M719 1567q-156 0 -252 88q-98 86 -98 217h233q0 -41 37 -70.5t84 -29.5t84 28q37 29 37 72h233q0 -129 -100 -217t-258 -88zM1333 0h-284v1022l-613 -1022h-282v1466h282v-1022l600 1022h297v-1466z" />
    <glyph glyph-name="acircumflex" unicode="&#x419;" horiz-adv-x="1542" 
d="M719 1567q-156 0 -252 88q-98 86 -98 217h233q0 -41 37 -70.5t84 -29.5t84 28q37 29 37 72h233q0 -129 -100 -217t-258 -88zM1333 0h-284v1022l-613 -1022h-282v1466h282v-1022l600 1022h297v-1466z" />
    <glyph glyph-name="adieresis" unicode="&#xca;" horiz-adv-x="1542" 
d="M135 1466h301v-630l596 630h381l-602 -606l639 -860h-383l-483 641l-148 -147v-494h-301v1466z" />
    <glyph glyph-name="adieresis" unicode="&#x41a;" horiz-adv-x="1542" 
d="M135 1466h301v-630l596 630h381l-602 -606l639 -860h-383l-483 641l-148 -147v-494h-301v1466z" />
    <glyph glyph-name="atilde" unicode="&#xcb;" horiz-adv-x="1542" 
d="M135 1085q0 160 137 271q138 110 357 110h690v-1466h-301v1206h-363q-219 0 -219 -166v-1040h-301v1085z" />
    <glyph glyph-name="atilde" unicode="&#x41b;" horiz-adv-x="1542" 
d="M135 1085q0 160 137 271q138 110 357 110h690v-1466h-301v1206h-363q-219 0 -219 -166v-1040h-301v1085z" />
    <glyph glyph-name="aring" unicode="&#xcc;" horiz-adv-x="1749" 
d="M135 1466h465l184 -841q11 -45 25 -119q12 -76 31 -160q43 240 53 279l192 841h453v-1466h-283v1210l-272 -1210h-293l-268 1210v-1210h-287v1466z" />
    <glyph glyph-name="aring" unicode="&#x41c;" horiz-adv-x="1749" 
d="M135 1466h465l184 -841q11 -45 25 -119q12 -76 31 -160q43 240 53 279l192 841h453v-1466h-283v1210l-272 -1210h-293l-268 1210v-1210h-287v1466z" />
    <glyph glyph-name="ccedilla" unicode="&#xcd;" horiz-adv-x="1495" 
d="M135 1466h301v-569h582v569h301v-1466h-301v633h-582v-633h-301v1466z" />
    <glyph glyph-name="ccedilla" unicode="&#x41d;" horiz-adv-x="1495" 
d="M135 1466h301v-569h582v569h301v-1466h-301v633h-582v-633h-301v1466z" />
    <glyph glyph-name="eacute" unicode="&#xce;" horiz-adv-x="1614" 
d="M80 727q0 231 88 406q86 172 248 268q162 94 372 94q154 0 283 -53t219 -150q90 -96 142 -233q49 -137 49 -305q0 -226 -86 -402q-86 -178 -244 -278q-160 -101 -363 -101q-210 0 -370 97q-162 94 -250 264t-88 393zM391 750q0 -213 94 -363q93 -149 295 -149
q181 0 287 139q104 139 104 368q0 228 -102 357q-104 127 -285 127q-114 0 -202 -58q-88 -57 -136 -163q-49 -109 -55 -258z" />
    <glyph glyph-name="eacute" unicode="&#x41e;" horiz-adv-x="1614" 
d="M80 727q0 231 88 406q86 172 248 268q162 94 372 94q154 0 283 -53t219 -150q90 -96 142 -233q49 -137 49 -305q0 -226 -86 -402q-86 -178 -244 -278q-160 -101 -363 -101q-210 0 -370 97q-162 94 -250 264t-88 393zM391 750q0 -213 94 -363q93 -149 295 -149
q181 0 287 139q104 139 104 368q0 228 -102 357q-104 127 -285 127q-114 0 -202 -58q-88 -57 -136 -163q-49 -109 -55 -258z" />
    <glyph glyph-name="egrave" unicode="&#xcf;" horiz-adv-x="1520" 
d="M135 1466h1184v-1466h-301v1202h-582v-1202h-301v1466z" />
    <glyph glyph-name="egrave" unicode="&#x41f;" horiz-adv-x="1520" 
d="M135 1466h1184v-1466h-301v1202h-582v-1202h-301v1466z" />
    <glyph glyph-name="ecircumflex" unicode="&#xd0;" horiz-adv-x="1382" 
d="M135 1466h604q219 0 320 -75q180 -129 180 -392q0 -262 -172 -397q-66 -43 -141 -61q-78 -21 -199 -21h-291v-520h-301v1466zM436 1202v-418h236q139 0 198 47q60 48 60 156q0 113 -60 164q-59 51 -196 51h-238z" />
    <glyph glyph-name="ecircumflex" unicode="&#x420;" horiz-adv-x="1382" 
d="M135 1466h604q219 0 320 -75q180 -129 180 -392q0 -262 -172 -397q-66 -43 -141 -61q-78 -21 -199 -21h-291v-520h-301v1466zM436 1202v-418h236q139 0 198 47q60 48 60 156q0 113 -60 164q-59 51 -196 51h-238z" />
    <glyph glyph-name="edieresis" unicode="&#xd1;" horiz-adv-x="1520" 
d="M1372 979h-301q-33 129 -104 190q-74 60 -195 60q-180 0 -280.5 -131t-100.5 -375q0 -156 45 -262q43 -109 125 -166t193 -57q239 0 317 274h301q-14 -100 -39 -162q-24 -63 -73 -131q-181 -246 -510 -246q-308 0 -488 205q-182 203 -182 545q0 235 84 409.5t236.5 268.5
t357.5 94q256 0 426 -139q168 -142 188 -377z" />
    <glyph glyph-name="edieresis" unicode="&#x421;" horiz-adv-x="1520" 
d="M1372 979h-301q-33 129 -104 190q-74 60 -195 60q-180 0 -280.5 -131t-100.5 -375q0 -156 45 -262q43 -109 125 -166t193 -57q239 0 317 274h301q-14 -100 -39 -162q-24 -63 -73 -131q-181 -246 -510 -246q-308 0 -488 205q-182 203 -182 545q0 235 84 409.5t236.5 268.5
t357.5 94q256 0 426 -139q168 -142 188 -377z" />
    <glyph glyph-name="iacute" unicode="&#xd2;" horiz-adv-x="1356" 
d="M27 1466h1175v-264h-434v-1202h-301v1202h-440v264z" />
    <glyph glyph-name="iacute" unicode="&#x422;" horiz-adv-x="1356" 
d="M27 1466h1175v-264h-434v-1202h-301v1202h-440v264z" />
    <glyph glyph-name="igrave" unicode="&#xd3;" horiz-adv-x="1382" 
d="M1255 1466l-682 -1466h-331l237 483l-434 983h344l256 -653l266 653h344z" />
    <glyph glyph-name="igrave" unicode="&#x423;" horiz-adv-x="1382" 
d="M1255 1466l-682 -1466h-331l237 483l-434 983h344l256 -653l266 653h344z" />
    <glyph glyph-name="icircumflex" unicode="&#xd4;" horiz-adv-x="2023" 
d="M840 1620h303v-121q207 0 383 -96q174 -98 274 -275q98 -178 98 -401q0 -219 -100 -393t-274 -271.5t-381 -97.5v-131h-303v131q-207 0 -383 97.5t-277 271.5q-100 174 -100 393q0 227 99.5 402.5t275.5 273.5q176 96 385 96v121zM1143 1233v-1000q207 0 325 156
q119 156 119 361q-2 143 -63.5 253.5t-161.5 170.5q-102 59 -219 59zM840 1233q-185 0 -312 -133q-129 -133 -137 -350q0 -129 52.5 -248t154.5 -193q100 -76 242 -76v1000z" />
    <glyph glyph-name="icircumflex" unicode="&#x424;" horiz-adv-x="2023" 
d="M840 1620h303v-121q207 0 383 -96q174 -98 274 -275q98 -178 98 -401q0 -219 -100 -393t-274 -271.5t-381 -97.5v-131h-303v131q-207 0 -383 97.5t-277 271.5q-100 174 -100 393q0 227 99.5 402.5t275.5 273.5q176 96 385 96v121zM1143 1233v-1000q207 0 325 156
q119 156 119 361q-2 143 -63.5 253.5t-161.5 170.5q-102 59 -219 59zM840 1233q-185 0 -312 -133q-129 -133 -137 -350q0 -129 52.5 -248t154.5 -193q100 -76 242 -76v1000z" />
    <glyph glyph-name="idieresis" unicode="&#xd5;" horiz-adv-x="1425" 
d="M27 0l467 741l-449 725h344l279 -487l278 487h336l-448 -712l481 -754h-354l-293 530l-306 -530h-335z" />
    <glyph glyph-name="idieresis" unicode="&#x425;" horiz-adv-x="1425" 
d="M27 0l467 741l-449 725h344l279 -487l278 487h336l-448 -712l481 -754h-354l-293 530l-306 -530h-335z" />
    <glyph glyph-name="ntilde" unicode="&#xd6;" horiz-adv-x="1636" 
d="M1495 0h-1360v1466h301v-1202h582v1202h301v-1202h176v-264z" />
    <glyph glyph-name="ntilde" unicode="&#x426;" horiz-adv-x="1636" 
d="M1495 0h-1360v1466h301v-1202h582v1202h301v-1202h176v-264z" />
    <glyph glyph-name="oacute" unicode="&#xd7;" horiz-adv-x="1520" 
d="M436 1051q0 -93 43 -123.5t139 -30.5h400v569h301v-1466h-301v633h-457q-192 0 -309 125q-117 123 -117 327v381h301v-415z" />
    <glyph glyph-name="oacute" unicode="&#x427;" horiz-adv-x="1520" 
d="M436 1051q0 -93 43 -123.5t139 -30.5h400v569h301v-1466h-301v633h-457q-192 0 -309 125q-117 123 -117 327v381h301v-415z" />
    <glyph glyph-name="ograve" unicode="&#xd8;" horiz-adv-x="2136" 
d="M1948 0h-1813v1466h301v-1202h457v1202h301v-1202h453v1202h301v-1466z" />
    <glyph glyph-name="ograve" unicode="&#x428;" horiz-adv-x="2136" 
d="M1948 0h-1813v1466h301v-1202h457v1202h301v-1202h453v1202h301v-1466z" />
    <glyph glyph-name="ocircumflex" unicode="&#xd9;" horiz-adv-x="2347" 
d="M2136 0h-2001v1466h301v-1202h457v1202h301v-1202h453v1202h301v-1202h188v-264z" />
    <glyph glyph-name="ocircumflex" unicode="&#x429;" horiz-adv-x="2347" 
d="M2136 0h-2001v1466h301v-1202h457v1202h301v-1202h453v1202h301v-1202h188v-264z" />
    <glyph glyph-name="odieresis" unicode="&#xda;" horiz-adv-x="1839" 
d="M467 1202h-440v264h741v-581h303q201 0 336 -62q133 -61 195 -157q59 -97 59 -217q0 -220 -158 -347q-76 -57 -164 -79q-90 -23 -245 -23h-627v1202zM768 641v-377h291q168 0 231 41q64 39 64 148q0 112 -58 151q-59 37 -229 37h-299z" />
    <glyph glyph-name="odieresis" unicode="&#x42a;" horiz-adv-x="1839" 
d="M467 1202h-440v264h741v-581h303q201 0 336 -62q133 -61 195 -157q59 -97 59 -217q0 -220 -158 -347q-76 -57 -164 -79q-90 -23 -245 -23h-627v1202zM768 641v-377h291q168 0 231 41q64 39 64 148q0 112 -58 151q-59 37 -229 37h-299z" />
    <glyph glyph-name="otilde" unicode="&#xdb;" horiz-adv-x="2091" 
d="M135 1466h301v-581h303q203 0 338 -62q135 -61 197 -159q59 -101 59 -215q0 -222 -162 -347q-71 -57 -159 -79q-90 -23 -246 -23h-631v1466zM436 641v-377h295q168 0 232 41q61 39 61 148q0 112 -57 151q-60 37 -232 37h-299zM1575 0v1466h301v-1466h-301z" />
    <glyph glyph-name="otilde" unicode="&#x42b;" horiz-adv-x="2091" 
d="M135 1466h301v-581h303q203 0 338 -62q135 -61 197 -159q59 -101 59 -215q0 -222 -162 -347q-71 -57 -159 -79q-90 -23 -246 -23h-631v1466zM436 641v-377h295q168 0 232 41q61 39 61 148q0 112 -57 151q-60 37 -232 37h-299zM1575 0v1466h301v-1466h-301z" />
    <glyph glyph-name="uacute" unicode="&#xdc;" horiz-adv-x="1520" 
d="M135 1466h301v-581h303q203 0 338 -62q135 -61 197 -159q59 -101 59 -215q0 -222 -162 -347q-71 -57 -159 -79q-90 -23 -246 -23h-631v1466zM436 641v-377h295q168 0 232 41q61 39 61 148q0 112 -57 151q-60 37 -232 37h-299z" />
    <glyph glyph-name="uacute" unicode="&#x42c;" horiz-adv-x="1520" 
d="M135 1466h301v-581h303q203 0 338 -62q135 -61 197 -159q59 -101 59 -215q0 -222 -162 -347q-71 -57 -159 -79q-90 -23 -246 -23h-631v1466zM436 641v-377h295q168 0 232 41q61 39 61 148q0 112 -57 151q-60 37 -232 37h-299z" />
    <glyph glyph-name="ugrave" unicode="&#xdd;" horiz-adv-x="1565" 
d="M623 633v264h444q-35 166 -113 250q-77 82 -219 82q-268 0 -327 -250h-302q13 151 97 270q82 117 221 183q139 63 307 63q156 0 279 -53t211 -156q86 -104 131 -242q43 -139 43 -321q0 -346 -178 -547q-181 -203 -494 -203q-330 0 -504 246q-90 123 -113 293h302
q73 -274 311 -274q151 0 245.5 104t112.5 291h-454z" />
    <glyph glyph-name="ugrave" unicode="&#x42d;" horiz-adv-x="1565" 
d="M623 633v264h444q-35 166 -113 250q-77 82 -219 82q-268 0 -327 -250h-302q13 151 97 270q82 117 221 183q139 63 307 63q156 0 279 -53t211 -156q86 -104 131 -242q43 -139 43 -321q0 -346 -178 -547q-181 -203 -494 -203q-330 0 -504 246q-90 123 -113 293h302
q73 -274 311 -274q151 0 245.5 104t112.5 291h-454z" />
    <glyph glyph-name="ucircumflex" unicode="&#xde;" horiz-adv-x="2204" 
d="M641 633h-205v-633h-301v1466h301v-569h211q49 279 234 438q184 160 460 160q154 0 283 -51q127 -53 221 -152q94 -98 144 -233q49 -137 49 -305q0 -342 -193 -561q-192 -220 -504 -220q-194 0 -346.5 82t-244.5 236q-95 151 -109 342zM950 750q0 -215 90 -363.5
t293 -148.5q178 0 287 139q106 139 106 368q0 228 -102 357q-104 127 -287 127q-114 0 -200 -58q-88 -57 -136 -163q-47 -107 -51 -258z" />
    <glyph glyph-name="ucircumflex" unicode="&#x42e;" horiz-adv-x="2204" 
d="M641 633h-205v-633h-301v1466h301v-569h211q49 279 234 438q184 160 460 160q154 0 283 -51q127 -53 221 -152q94 -98 144 -233q49 -137 49 -305q0 -342 -193 -561q-192 -220 -504 -220q-194 0 -346.5 82t-244.5 236q-95 151 -109 342zM950 750q0 -215 90 -363.5
t293 -148.5q178 0 287 139q106 139 106 368q0 228 -102 357q-104 127 -287 127q-114 0 -200 -58q-88 -57 -136 -163q-47 -107 -51 -258z" />
    <glyph glyph-name="udieresis" unicode="&#xdf;" horiz-adv-x="1470" 
d="M1284 1466v-1466h-301v580h-274q-125 0 -179 -37q-53 -37 -59 -90q-8 -54 -12 -220q-6 -143 -37 -233h-336q61 57 61 297v12q0 230 60 314q37 47 117 82q-113 65 -160 139t-47 200q0 218 151 338q68 50 144 68q73 16 233 16h639zM983 1202h-283q-157 0 -215 -37
q-59 -39 -59 -147q0 -111 59 -150q60 -39 215 -39h283v373z" />
    <glyph glyph-name="udieresis" unicode="&#x42f;" horiz-adv-x="1470" 
d="M1284 1466v-1466h-301v580h-274q-125 0 -179 -37q-53 -37 -59 -90q-8 -54 -12 -220q-6 -143 -37 -233h-336q61 57 61 297v12q0 230 60 314q37 47 117 82q-113 65 -160 139t-47 200q0 218 151 338q68 50 144 68q73 16 233 16h639zM983 1202h-283q-157 0 -215 -37
q-59 -39 -59 -147q0 -111 59 -150q60 -39 215 -39h283v373z" />
    <glyph glyph-name="daggerdbl" unicode="&#xe0;" horiz-adv-x="1171" 
d="M98 727q15 373 463 373q334 0 422 -172q23 -35 31 -82q8 -49 8 -141v-539q0 -109 51 -166h-289q-45 59 -49 143q-86 -98 -162 -133q-75 -37 -192 -37q-141 0 -229 90q-89 91 -89 232q0 137 72 219q70 80 215 111q170 39 381 53q0 108 -29 153q-30 43 -141 43
q-92 0 -137 -32q-47 -33 -62 -115h-264zM735 502q-186 -29 -205 -35q-104 -21 -141 -51q-39 -33 -39 -99q0 -51 43 -86q41 -34 105 -34q135 0 186 79q51 80 51 226z" />
    <glyph glyph-name="daggerdbl" unicode="&#x430;" horiz-adv-x="1171" 
d="M98 727q15 373 463 373q334 0 422 -172q23 -35 31 -82q8 -49 8 -141v-539q0 -109 51 -166h-289q-45 59 -49 143q-86 -98 -162 -133q-75 -37 -192 -37q-141 0 -229 90q-89 91 -89 232q0 137 72 219q70 80 215 111q170 39 381 53q0 108 -29 153q-30 43 -141 43
q-92 0 -137 -32q-47 -33 -62 -115h-264zM735 502q-186 -29 -205 -35q-104 -21 -141 -51q-39 -33 -39 -99q0 -51 43 -86q41 -34 105 -34q135 0 186 79q51 80 51 226z" />
    <glyph glyph-name="periodcentered" unicode="&#xe1;" horiz-adv-x="1288" 
d="M63 592q0 266 68 449.5t193 273.5q122 90 294 90q148 0 148 61h256q0 -110 -92 -192q-92 -84 -289 -84q-139 0 -213 -62q-74 -61 -96 -155q71 59 137 94q66 33 145 33q164 0 291 -68.5t195 -193.5q65 -127 65 -303q0 -259 -147.5 -410.5t-403.5 -151.5q-249 0 -399 170
q-152 168 -152 449zM614 874q-120 0 -190 -90t-70 -245q0 -158 70 -250t190 -92q121 0 190.5 90t69.5 248q0 155 -69.5 247t-190.5 92z" />
    <glyph glyph-name="periodcentered" unicode="&#x431;" horiz-adv-x="1288" 
d="M63 592q0 266 68 449.5t193 273.5q122 90 294 90q148 0 148 61h256q0 -110 -92 -192q-92 -84 -289 -84q-139 0 -213 -62q-74 -61 -96 -155q71 59 137 94q66 33 145 33q164 0 291 -68.5t195 -193.5q65 -127 65 -303q0 -259 -147.5 -410.5t-403.5 -151.5q-249 0 -399 170
q-152 168 -152 449zM614 874q-120 0 -190 -90t-70 -245q0 -158 70 -250t190 -92q121 0 190.5 90t69.5 248q0 155 -69.5 247t-190.5 92z" />
    <glyph glyph-name="quotesinglbase" unicode="&#xe2;" horiz-adv-x="1171" 
d="M135 1073h529q180 0 294 -72q113 -71 113 -194q0 -92 -43 -152q-45 -59 -143 -104q90 -33 145 -100.5t55 -155.5q0 -113 -94 -203q-96 -92 -252 -92h-604v1073zM422 207h229q148 0 148 121q0 116 -113 116h-264v-237zM422 866v-221h242q114 0 120 113q0 108 -116 108
h-246z" />
    <glyph glyph-name="quotesinglbase" unicode="&#x432;" horiz-adv-x="1171" 
d="M135 1073h529q180 0 294 -72q113 -71 113 -194q0 -92 -43 -152q-45 -59 -143 -104q90 -33 145 -100.5t55 -155.5q0 -113 -94 -203q-96 -92 -252 -92h-604v1073zM422 207h229q148 0 148 121q0 116 -113 116h-264v-237zM422 866v-221h242q114 0 120 113q0 108 -116 108
h-246z" />
    <glyph glyph-name="quotedblbase" unicode="&#xe3;" horiz-adv-x="1171" 
d="M1073 350q-2 -178 -133 -276q-131 -101 -367 -101q-135 0 -227 31q-113 37 -188 131q-78 92 -78 193q0 86 51 154.5t139 101.5l447 143q41 14 41 53q0 49 -43 80q-45 29 -127 29q-166 0 -189 -148h-278q18 119 55 174q51 91 158 138q104 47 246 47q200 0 329 -96
q127 -99 127 -250q0 -181 -225 -252l-313 -111q-86 -26 -105 -41q-20 -14 -20 -53q0 -47 55 -80q53 -33 137 -33q105 0 156 39t67 127h285z" />
    <glyph glyph-name="quotedblbase" unicode="&#x433;" horiz-adv-x="1171" 
d="M1073 350q-2 -178 -133 -276q-131 -101 -367 -101q-135 0 -227 31q-113 37 -188 131q-78 92 -78 193q0 86 51 154.5t139 101.5l447 143q41 14 41 53q0 49 -43 80q-45 29 -127 29q-166 0 -189 -148h-278q18 119 55 174q51 91 158 138q104 47 246 47q200 0 329 -96
q127 -99 127 -250q0 -181 -225 -252l-313 -111q-86 -26 -105 -41q-20 -14 -20 -53q0 -47 55 -80q53 -33 137 -33q105 0 156 39t67 127h285z" />
    <glyph glyph-name="perthousand" unicode="&#xe4;" horiz-adv-x="1221" 
d="M86 -117h305q27 -57 66 -80q39 -22 108 -22q140 0 191 76q51 73 51 274v45q-47 -92 -123 -137q-76 -47 -186 -47q-187 0 -310 151q-125 152 -125 381q0 262 119 420q117 156 316 156q108 0 182 -43q72 -45 127 -146v162h287v-915q0 -181 -11 -252q-12 -74 -51 -139
q-117 -207 -467 -207q-198 0 -321 71q-125 72 -158 252zM354 543q0 -144 62 -224q59 -81 164 -81q104 0 161 81q58 80 58 228q0 145 -58.5 227t-167.5 82q-104 0 -161.5 -82t-57.5 -231z" />
    <glyph glyph-name="perthousand" unicode="&#x434;" horiz-adv-x="1221" 
d="M86 -117h305q27 -57 66 -80q39 -22 108 -22q140 0 191 76q51 73 51 274v45q-47 -92 -123 -137q-76 -47 -186 -47q-187 0 -310 151q-125 152 -125 381q0 262 119 420q117 156 316 156q108 0 182 -43q72 -45 127 -146v162h287v-915q0 -181 -11 -252q-12 -74 -51 -139
q-117 -207 -467 -207q-198 0 -321 71q-125 72 -158 252zM354 543q0 -144 62 -224q59 -81 164 -81q104 0 161 81q58 80 58 228q0 145 -58.5 227t-167.5 82q-104 0 -161.5 -82t-57.5 -231z" />
    <glyph glyph-name="Acircumflex" unicode="&#xe5;" 
d="M358 483q7 -96 31 -159q25 -66 72 -97q45 -30 108 -30q60 0 97 24q34 25 73 92h293q-69 -172 -182 -256q-115 -84 -289 -84q-235 0 -366 150q-132 147 -132 407q0 271 132 420q131 150 366 150q240 0 367 -144.5t127 -420.5q0 -29 -4 -52h-693zM358 668h396
q-9 98 -58 153q-51 53 -139 53q-176 0 -199 -206z" />
    <glyph glyph-name="Acircumflex" unicode="&#x435;" 
d="M358 483q7 -96 31 -159q25 -66 72 -97q45 -30 108 -30q60 0 97 24q34 25 73 92h293q-69 -172 -182 -256q-115 -84 -289 -84q-235 0 -366 150q-132 147 -132 407q0 271 132 420q131 150 366 150q240 0 367 -144.5t127 -420.5q0 -29 -4 -52h-693zM358 668h396
q-9 98 -58 153q-51 53 -139 53q-176 0 -199 -206z" />
    <glyph glyph-name="Ecircumflex" unicode="&#xe6;" horiz-adv-x="1839" 
d="M754 0v346l-113 125l-238 -471h-344l404 655l-404 418h344l351 -418v418h286v-418l355 418h342l-404 -418l404 -655h-342l-238 471l-117 -125v-346h-286z" />
    <glyph glyph-name="Ecircumflex" unicode="&#x436;" horiz-adv-x="1839" 
d="M754 0v346l-113 125l-238 -471h-344l404 655l-404 418h344l351 -418v418h286v-418l355 418h342l-404 -418l404 -655h-342l-238 471l-117 -125v-346h-286z" />
    <glyph glyph-name="Aacute" unicode="&#xe7;" horiz-adv-x="1081" 
d="M983 313q0 -141 -113.5 -233t-318.5 -92q-232 0 -350 94q-119 92 -119 246h291q0 -49 47 -92q45 -43 127 -43q80 0 116.5 39.5t36.5 95.5q0 116 -112 116h-82v201h55q115 0 121 113q0 53 -39 90t-100 37q-64 0 -115 -39t-51 -88h-271q0 133 119 227q117 92 318 92
q200 0 313 -71.5t113 -198.5q0 -90 -47 -160q-50 -69 -138 -96q86 -23 144 -86q55 -64 55 -152z" />
    <glyph glyph-name="Aacute" unicode="&#x437;" horiz-adv-x="1081" 
d="M983 313q0 -141 -113.5 -233t-318.5 -92q-232 0 -350 94q-119 92 -119 246h291q0 -49 47 -92q45 -43 127 -43q80 0 116.5 39.5t36.5 95.5q0 116 -112 116h-82v201h55q115 0 121 113q0 53 -39 90t-100 37q-64 0 -115 -39t-51 -88h-271q0 133 119 227q117 92 318 92
q200 0 313 -71.5t113 -198.5q0 -90 -47 -160q-50 -69 -138 -96q86 -23 144 -86q55 -64 55 -152z" />
    <glyph glyph-name="Edieresis" unicode="&#xe8;" horiz-adv-x="1198" 
d="M125 1073h287v-624q0 -125 38.5 -177.5t137.5 -52.5q133 0 176 92t43 242v520h287v-1073h-287v166q-62 -103 -135.5 -148t-186.5 -45q-108 0 -194 54q-88 53 -125 135q-41 80 -41 264v647z" />
    <glyph glyph-name="Edieresis" unicode="&#x438;" horiz-adv-x="1198" 
d="M125 1073h287v-624q0 -125 38.5 -177.5t137.5 -52.5q133 0 176 92t43 242v520h287v-1073h-287v166q-62 -103 -135.5 -148t-186.5 -45q-108 0 -194 54q-88 53 -125 135q-41 80 -41 264v647z" />
    <glyph glyph-name="Egrave" unicode="&#xe9;" horiz-adv-x="1221" 
d="M125 1073h287v-624q0 -125 38.5 -177.5t137.5 -52.5q133 0 176 92t43 242v520h287v-1073h-287v166q-62 -103 -135.5 -148t-186.5 -45q-108 0 -194 54q-88 53 -125 135q-41 80 -41 264v647zM596 1198q-135 0 -217 80t-82 188h211q0 -16 27 -41q24 -26 61 -26q35 0 57 24
q21 25 21 43h215q0 -108 -78 -188t-215 -80z" />
    <glyph glyph-name="Egrave" unicode="&#x439;" horiz-adv-x="1221" 
d="M125 1073h287v-624q0 -125 38.5 -177.5t137.5 -52.5q133 0 176 92t43 242v520h287v-1073h-287v166q-62 -103 -135.5 -148t-186.5 -45q-108 0 -194 54q-88 53 -125 135q-41 80 -41 264v647zM596 1198q-135 0 -217 80t-82 188h211q0 -16 27 -41q24 -26 61 -26q35 0 57 24
q21 25 21 43h215q0 -108 -78 -188t-215 -80z" />
    <glyph glyph-name="Iacute" unicode="&#xea;" horiz-adv-x="1221" 
d="M135 1073h287v-418l354 418h340l-399 -418l399 -655h-340l-237 471l-117 -125v-346h-287v1073z" />
    <glyph glyph-name="Iacute" unicode="&#x43a;" horiz-adv-x="1221" 
d="M135 1073h287v-418l354 418h340l-399 -418l399 -655h-340l-237 471l-117 -125v-346h-287v1073z" />
    <glyph glyph-name="Icircumflex" unicode="&#xeb;" horiz-adv-x="1221" 
d="M1104 1073v-1073h-287v547q0 309 -221 309q-174 0 -174 -211v-645h-287v668q0 151 31 229q29 88 123 145q92 58 205 58q108 0 179.5 -41t143.5 -148v162h287z" />
    <glyph glyph-name="Icircumflex" unicode="&#x43b;" horiz-adv-x="1221" 
d="M1104 1073v-1073h-287v547q0 309 -221 309q-174 0 -174 -211v-645h-287v668q0 151 31 229q29 88 123 145q92 58 205 58q108 0 179.5 -41t143.5 -148v162h287z" />
    <glyph glyph-name="Idieresis" unicode="&#xec;" horiz-adv-x="1565" 
d="M807 305l377 768h286v-1073h-286v629l-287 -629h-184l-291 629v-629h-287v1073h287z" />
    <glyph glyph-name="Idieresis" unicode="&#x43c;" horiz-adv-x="1565" 
d="M807 305l377 768h286v-1073h-286v629l-287 -629h-184l-291 629v-629h-287v1073h287z" />
    <glyph glyph-name="Igrave" unicode="&#xed;" horiz-adv-x="1221" 
d="M422 483v-483h-287v1073h287v-405h395v405h287v-1073h-287v483h-395z" />
    <glyph glyph-name="Igrave" unicode="&#x43d;" horiz-adv-x="1221" 
d="M422 483v-483h-287v1073h287v-405h395v405h287v-1073h-287v483h-395z" />
    <glyph glyph-name="Oacute" unicode="&#xee;" horiz-adv-x="1266" 
d="M63 539q0 168 68 297q66 127 195 196q127 68 288 68q164 0 291 -68.5t195 -193.5q65 -127 65 -303q0 -259 -147.5 -410.5t-403.5 -151.5q-254 0 -401 154q-150 152 -150 412zM354 539q0 -158 70 -250t190 -92q121 0 190.5 90t69.5 248q0 155 -69.5 247t-190.5 92
q-120 0 -190 -90t-70 -245z" />
    <glyph glyph-name="Oacute" unicode="&#x43e;" horiz-adv-x="1266" 
d="M63 539q0 168 68 297q66 127 195 196q127 68 288 68q164 0 291 -68.5t195 -193.5q65 -127 65 -303q0 -259 -147.5 -410.5t-403.5 -151.5q-254 0 -401 154q-150 152 -150 412zM354 539q0 -158 70 -250t190 -92q121 0 190.5 90t69.5 248q0 155 -69.5 247t-190.5 92
q-120 0 -190 -90t-70 -245z" />
    <glyph glyph-name="Ocircumflex" unicode="&#xef;" horiz-adv-x="1221" 
d="M135 1073h287v-162q74 105 147 148q72 41 176 41q113 0 207 -58q92 -57 125 -145q27 -82 27 -229v-668h-287v645q0 109 -41 160t-129 51q-225 0 -225 -309v-547h-287v1073z" />
    <glyph glyph-name="Ocircumflex" unicode="&#x43f;" horiz-adv-x="1221" 
d="M135 1073h287v-162q74 105 147 148q72 41 176 41q113 0 207 -58q92 -57 125 -145q27 -82 27 -229v-668h-287v645q0 109 -41 160t-129 51q-225 0 -225 -309v-547h-287v1073z" />
    <glyph glyph-name="apple" unicode="&#xf0;" horiz-adv-x="1266" 
d="M135 1073h287v-145q80 92 156 133q73 39 167 39q199 0 309.5 -146.5t110.5 -410.5q0 -172 -53 -301q-55 -131 -154 -199q-100 -70 -235 -70q-96 0 -166 41q-72 41 -135 140v-568h-287v1487zM647 856q-112 0 -172 -82q-61 -84 -61 -239q0 -154 61 -234q60 -82 172 -82
q109 0 168 82t59 234q0 153 -59 237t-168 84z" />
    <glyph glyph-name="apple" unicode="&#x440;" horiz-adv-x="1266" 
d="M135 1073h287v-145q80 92 156 133q73 39 167 39q199 0 309.5 -146.5t110.5 -410.5q0 -172 -53 -301q-55 -131 -154 -199q-100 -70 -235 -70q-96 0 -166 41q-72 41 -135 140v-568h-287v1487zM647 856q-112 0 -172 -82q-61 -84 -61 -239q0 -154 61 -234q60 -82 172 -82
q109 0 168 82t59 234q0 153 -59 237t-168 84z" />
    <glyph glyph-name="Ograve" unicode="&#xf1;" horiz-adv-x="1171" 
d="M1055 690h-283q-22 103 -65 143.5t-123 40.5q-111 0 -170 -88q-60 -90 -60 -251q0 -338 226 -338q77 0 122 47q46 47 70 155h283q-31 -209 -156 -317.5t-334 -108.5q-157 0 -270 65.5t-172 192.5q-60 125 -60 304q0 172 62 301q59 129 174 196q115 68 266 68
q219 0 346 -105q125 -106 144 -305z" />
    <glyph glyph-name="Ograve" unicode="&#x441;" horiz-adv-x="1171" 
d="M1055 690h-283q-22 103 -65 143.5t-123 40.5q-111 0 -170 -88q-60 -90 -60 -251q0 -338 226 -338q77 0 122 47q46 47 70 155h283q-31 -209 -156 -317.5t-334 -108.5q-157 0 -270 65.5t-172 192.5q-60 125 -60 304q0 172 62 301q59 129 174 196q115 68 266 68
q219 0 346 -105q125 -106 144 -305z" />
    <glyph glyph-name="Uacute" unicode="&#xf2;" horiz-adv-x="1749" 
d="M135 1073h287v-149q78 100 143 139q64 37 154 37q211 0 276 -185q72 99 146 142q71 43 170 43q166 0 254 -105q86 -104 86 -295v-700h-287v625q0 125 -33 178q-35 53 -119 53q-94 0 -135 -68.5t-41 -236.5v-551h-286v641q0 119 -33 168q-33 47 -115 47q-96 0 -137 -70
q-43 -69 -43 -229v-557h-287v1073z" />
    <glyph glyph-name="Uacute" unicode="&#x442;" horiz-adv-x="1749" 
d="M135 1073h287v-149q78 100 143 139q64 37 154 37q211 0 276 -185q72 99 146 142q71 43 170 43q166 0 254 -105q86 -104 86 -295v-700h-287v625q0 125 -33 178q-35 53 -119 53q-94 0 -135 -68.5t-41 -236.5v-551h-286v641q0 119 -33 168q-33 47 -115 47q-96 0 -137 -70
q-43 -69 -43 -229v-557h-287v1073z" />
    <glyph glyph-name="Ucircumflex" unicode="&#xf3;" horiz-adv-x="1171" 
d="M340 1073l172 -606q27 -78 53 -207q4 23 14.5 64t20.5 82q10 38 14 61l177 606h303l-353 -1001q-120 -373 -202 -449q-64 -63 -222 -63q-30 2 -65 4q-37 2 -76 2v227q19 0 49 -4q31 -4 45 -4q66 0 97 35q28 33 51 131l-391 1122h313z" />
    <glyph glyph-name="Ucircumflex" unicode="&#x443;" horiz-adv-x="1171" 
d="M340 1073l172 -606q27 -78 53 -207q4 23 14.5 64t20.5 82q10 38 14 61l177 606h303l-353 -1001q-120 -373 -202 -449q-64 -63 -222 -63q-30 2 -65 4q-37 2 -76 2v227q19 0 49 -4q31 -4 45 -4q66 0 97 35q28 33 51 131l-391 1122h313z" />
    <glyph glyph-name="Ugrave" unicode="&#xf4;" horiz-adv-x="1956" 
d="M817 -414v568q-63 -101 -131 -140q-70 -41 -166 -41q-205 0 -323 154q-121 154 -121 416q0 264 111.5 410.5t306.5 146.5q96 0 173.5 -41t149.5 -131v538h287v-538q80 92 156 133q73 39 172 39q194 0 304.5 -146.5t110.5 -410.5t-116 -416q-119 -154 -326 -154
q-96 0 -166 41q-70 39 -135 140v-568h-287zM596 856q-111 0 -170 -84q-61 -84 -61 -237q0 -152 61 -234t170 -82t172 84q61 82 61 232q0 149 -61 235t-172 86zM1331 856q-114 0 -174 -82q-61 -84 -61 -239q0 -154 61 -234q60 -82 174 -82q109 0 170 84q60 82 60 232
q0 149 -60.5 235t-169.5 86z" />
    <glyph glyph-name="Ugrave" unicode="&#x444;" horiz-adv-x="1956" 
d="M817 -414v568q-63 -101 -131 -140q-70 -41 -166 -41q-205 0 -323 154q-121 154 -121 416q0 264 111.5 410.5t306.5 146.5q96 0 173.5 -41t149.5 -131v538h287v-538q80 92 156 133q73 39 172 39q194 0 304.5 -146.5t110.5 -410.5t-116 -416q-119 -154 -326 -154
q-96 0 -166 41q-70 39 -135 140v-568h-287zM596 856q-111 0 -170 -84q-61 -84 -61 -237q0 -152 61 -234t170 -82t172 84q61 82 61 232q0 149 -61 235t-172 86zM1331 856q-114 0 -174 -82q-61 -84 -61 -239q0 -154 61 -234q60 -82 174 -82q109 0 170 84q60 82 60 232
q0 149 -60.5 235t-169.5 86z" />
    <glyph glyph-name="dotlessi" unicode="&#xf5;" horiz-adv-x="1198" 
d="M557 354q-31 -78 -90 -178l-105 -176h-335l362 543l-340 530h340q72 -123 109 -190q34 -68 59 -144q10 31 47 101q35 69 76 143q39 74 47 90h346l-346 -530l367 -543h-340l-103 176q-49 78 -94 178z" />
    <glyph glyph-name="dotlessi" unicode="&#x445;" horiz-adv-x="1198" 
d="M557 354q-31 -78 -90 -178l-105 -176h-335l362 543l-340 530h340q72 -123 109 -190q34 -68 59 -144q10 31 47 101q35 69 76 143q39 74 47 90h346l-346 -530l367 -543h-340l-103 176q-49 78 -94 178z" />
    <glyph glyph-name="circumflex" unicode="&#xf6;" horiz-adv-x="1311" 
d="M1094 242h131v-600h-287v358h-131v166q-62 -103 -135.5 -148t-186.5 -45q-108 0 -194 54q-88 53 -125 135q-41 80 -41 264v647h287v-624q0 -125 38.5 -177.5t137.5 -52.5q133 0 176 92t43 242v520h287v-831z" />
    <glyph glyph-name="circumflex" unicode="&#x446;" horiz-adv-x="1311" 
d="M1094 242h131v-600h-287v358h-131v166q-62 -103 -135.5 -148t-186.5 -45q-108 0 -194 54q-88 53 -125 135q-41 80 -41 264v647h287v-624q0 -125 38.5 -177.5t137.5 -52.5q133 0 176 92t43 242v520h287v-831z" />
    <glyph glyph-name="tilde" unicode="&#xf7;" horiz-adv-x="1198" 
d="M125 1073h287v-256q0 -125 39 -176q38 -53 137 -53q135 0 178 92q41 90 41 244v149h287v-1073h-287v535q-62 -103 -135.5 -148t-186.5 -45q-108 0 -194 53q-88 54 -125 135q-41 82 -41 265v278z" />
    <glyph glyph-name="tilde" unicode="&#x447;" horiz-adv-x="1198" 
d="M125 1073h287v-256q0 -125 39 -176q38 -53 137 -53q135 0 178 92q41 90 41 244v149h287v-1073h-287v535q-62 -103 -135.5 -148t-186.5 -45q-108 0 -194 53q-88 54 -125 135q-41 82 -41 265v278z" />
    <glyph glyph-name="macron" unicode="&#xf8;" horiz-adv-x="1722" 
d="M1632 0h-286v147q-74 -98 -140 -135q-67 -39 -157 -39q-209 0 -277 185q-72 -101 -143 -142q-72 -43 -170 -43q-166 0 -254 104.5t-88 295.5v700h286v-629q0 -118 35 -172q33 -53 115 -53q96 0 137 67.5t41 237.5v549h287v-639q0 -115 33 -164q32 -51 114 -51
q97 0 140 68q41 65 41 225v561h286v-1073z" />
    <glyph glyph-name="macron" unicode="&#x448;" horiz-adv-x="1722" 
d="M1632 0h-286v147q-74 -98 -140 -135q-67 -39 -157 -39q-209 0 -277 185q-72 -101 -143 -142q-72 -43 -170 -43q-166 0 -254 104.5t-88 295.5v700h286v-629q0 -118 35 -172q33 -53 115 -53q96 0 137 67.5t41 237.5v549h287v-639q0 -115 33 -164q32 -51 114 -51
q97 0 140 68q41 65 41 225v561h286v-1073z" />
    <glyph glyph-name="breve" unicode="&#xf9;" horiz-adv-x="1884" 
d="M1477 0h-131v147q-74 -98 -140 -135q-67 -39 -157 -39q-209 0 -277 185q-72 -101 -143 -142q-72 -43 -170 -43q-166 0 -254 104.5t-88 295.5v700h286v-629q0 -118 35 -172q33 -53 115 -53q96 0 137 67.5t41 237.5v549h287v-639q0 -115 33 -164q32 -51 114 -51
q97 0 140 68q41 65 41 225v561h286v-831h131v-600h-286v358z" />
    <glyph glyph-name="breve" unicode="&#x449;" horiz-adv-x="1884" 
d="M1477 0h-131v147q-74 -98 -140 -135q-67 -39 -157 -39q-209 0 -277 185q-72 -101 -143 -142q-72 -43 -170 -43q-166 0 -254 104.5t-88 295.5v700h286v-629q0 -118 35 -172q33 -53 115 -53q96 0 137 67.5t41 237.5v549h287v-639q0 -115 33 -164q32 -51 114 -51
q97 0 140 68q41 65 41 225v561h286v-831h131v-600h-286v358z" />
    <glyph glyph-name="dotaccent" unicode="&#xfa;" horiz-adv-x="1450" 
d="M82 834v239h627v-422h264q114 0 205 -41q90 -43 139 -114q47 -72 47 -156q0 -135 -100 -238q-101 -102 -258 -102h-584v834h-340zM709 207h245q52 0 82 37q31 37 31 84q0 49 -31 84q-32 32 -82 32h-245v-237z" />
    <glyph glyph-name="dotaccent" unicode="&#x44a;" horiz-adv-x="1450" 
d="M82 834v239h627v-422h264q114 0 205 -41q90 -43 139 -114q47 -72 47 -156q0 -135 -100 -238q-101 -102 -258 -102h-584v834h-340zM709 207h245q52 0 82 37q31 37 31 84q0 49 -31 84q-32 32 -82 32h-245v-237z" />
    <glyph glyph-name="ring" unicode="&#xfb;" horiz-adv-x="1587" 
d="M422 1073v-422h252q98 0 188 -43q88 -43 142 -112q51 -72 51 -156q0 -135 -101 -238q-100 -102 -260 -102h-559v1073h287zM422 207h225q51 0 80 37q27 35 27 84q0 116 -109 116h-223v-237zM1499 0h-287v1073h287v-1073z" />
    <glyph glyph-name="ring" unicode="&#x44b;" horiz-adv-x="1587" 
d="M422 1073v-422h252q98 0 188 -43q88 -43 142 -112q51 -72 51 -156q0 -135 -101 -238q-100 -102 -260 -102h-559v1073h287zM422 207h225q51 0 80 37q27 35 27 84q0 116 -109 116h-223v-237zM1499 0h-287v1073h287v-1073z" />
    <glyph glyph-name="cedilla" unicode="&#xfc;" 
d="M422 1073v-422h252q98 0 188 -43q88 -43 142 -112q51 -72 51 -156q0 -135 -101 -238q-100 -102 -260 -102h-559v1073h287zM422 207h225q51 0 80 37q27 35 27 84q0 116 -109 116h-223v-237z" />
    <glyph glyph-name="cedilla" unicode="&#x44c;" 
d="M422 1073v-422h252q98 0 188 -43q88 -43 142 -112q51 -72 51 -156q0 -135 -101 -238q-100 -102 -260 -102h-559v1073h287zM422 207h225q51 0 80 37q27 35 27 84q0 116 -109 116h-223v-237z" />
    <glyph glyph-name="hungarumlaut" unicode="&#xfd;" 
d="M768 483h-266v185h252q-43 211 -193 211q-170 0 -207 -189h-286q24 203 149 307q123 103 340 103q152 0 266 -68q115 -67 175.5 -196t60.5 -301q0 -269 -131 -414q-133 -148 -371 -148q-205 0 -330 108.5t-159 317.5h286q25 -112 70 -157q43 -45 123 -45q201 0 221 286z
" />
    <glyph glyph-name="hungarumlaut" unicode="&#x44d;" 
d="M768 483h-266v185h252q-43 211 -193 211q-170 0 -207 -189h-286q24 203 149 307q123 103 340 103q152 0 266 -68q115 -67 175.5 -196t60.5 -301q0 -269 -131 -414q-133 -148 -371 -148q-205 0 -330 108.5t-159 317.5h286q25 -112 70 -157q43 -45 123 -45q201 0 221 286z
" />
    <glyph glyph-name="ogonek" unicode="&#xfe;" horiz-adv-x="1749" 
d="M422 483v-483h-287v1073h287v-405h151q37 204 181 319q141 113 362 113q166 0 291 -68.5t192 -193.5q66 -127 66 -303q0 -259 -145 -410q-148 -152 -404 -152q-235 0 -379 138q-145 135 -168 372h-147zM856 539q0 -158 69.5 -250t190.5 -92q80 0 139 41q60 41 93 116
q30 74 30 181q0 155 -69.5 247t-192.5 92q-121 0 -190.5 -90t-69.5 -245z" />
    <glyph glyph-name="ogonek" unicode="&#x44e;" horiz-adv-x="1749" 
d="M422 483v-483h-287v1073h287v-405h151q37 204 181 319q141 113 362 113q166 0 291 -68.5t192 -193.5q66 -127 66 -303q0 -259 -145 -410q-148 -152 -404 -152q-235 0 -379 138q-145 135 -168 372h-147zM856 539q0 -158 69.5 -250t190.5 -92q80 0 139 41q60 41 93 116
q30 74 30 181q0 155 -69.5 247t-192.5 92q-121 0 -190.5 -90t-69.5 -245z" />
    <glyph glyph-name="fl" unicode="&#xff;" horiz-adv-x="1311" 
d="M907 0v444h-342q-51 0 -73 -59q-25 -59 -25 -129q0 -147 -53 -256h-279q62 133 62 291q0 90 45 162q45 69 127 98q-97 45 -140 108q-45 62 -45 148q0 266 324 266h686v-1073h-287zM588 866q-117 0 -117 -108q6 -113 121 -113h315v221h-319z" />
    <glyph glyph-name="fl" unicode="&#x44f;" horiz-adv-x="1311" 
d="M907 0v444h-342q-51 0 -73 -59q-25 -59 -25 -129q0 -147 -53 -256h-279q62 133 62 291q0 90 45 162q45 69 127 98q-97 45 -140 108q-45 62 -45 148q0 266 324 266h686v-1073h-287zM588 866q-117 0 -117 -108q6 -113 121 -113h315v221h-319z" />
    <glyph glyph-name="Otilde" unicode="&#x152;" horiz-adv-x="1587" 
d="M135 1466h301v-630l596 630h381l-602 -606l639 -860h-383l-483 641l-148 -147v-494h-301v1466zM553 1921h299l-234 -297h-200z" />
    <glyph glyph-name="oe" unicode="&#x153;" 
d="M63 350h287q19 -84 70 -119q51 -34 153 -34q89 0 142 26q51 27 51 74q0 39 -21.5 54.5t-103.5 39.5l-317 111q-222 73 -222 252q0 151 129 250q127 96 326 96q141 0 250 -47q106 -49 154 -138q34 -53 57 -174h-279q-12 74 -51 105q-41 28 -131 28q-84 0 -131 -24
q-49 -25 -49 -70q0 -41 45 -53l440 -143q88 -31 142 -99q51 -67 51 -157q0 -101 -76 -193q-78 -94 -188 -131q-93 -31 -230 -31q-235 0 -362 99q-129 98 -136 278z" />
    <glyph glyph-name="Ydieresis.0" unicode="&#x178;" horiz-adv-x="1130" 
d="M340 1073l172 -606q27 -78 53 -207q4 23 14.5 64t20.5 82q10 38 14 61l177 606h303l-353 -1001q-120 -373 -202 -449q-64 -63 -222 -63q-30 2 -65 4q-37 2 -76 2v227q19 0 49 -4q31 -4 45 -4q66 0 97 35q28 33 51 131l-391 1122h313zM557 1198q-135 0 -215 80
q-82 78 -82 188h215q0 -14 25 -41q24 -26 57 -26q35 0 59 26q25 27 25 41h211q0 -108 -80 -188t-215 -80z" />
    <glyph glyph-name="florin" unicode="&#x192;" horiz-adv-x="1104" 
d="M928 852l-23 -152h-182l-127 -727q-37 -217 -119 -313t-289 -96q-32 0 -112 6l41 215q22 -4 57 -4q59 0 86 15.5t45 64.5q17 47 35 153l119 686h-164l24 152h166l45 244q37 198 121 284q82 86 269 86q59 0 120 -4l-34 -223h-82q-64 0 -90 -33q-29 -32 -43 -129l-41 -225
h178z" />
    <glyph glyph-name="circumflex.0" unicode="&#x2c6;" horiz-adv-x="1311" 
d="M1094 242h131v-600h-287v358h-131v166q-62 -103 -135.5 -148t-186.5 -45q-108 0 -194 54q-88 53 -125 135q-41 80 -41 264v647h287v-624q0 -125 38.5 -177.5t137.5 -52.5q133 0 176 92t43 242v520h287v-831z" />
    <glyph glyph-name="tilde.0" unicode="&#x2dc;" horiz-adv-x="1198" 
d="M125 1073h287v-256q0 -125 39 -176q38 -53 137 -53q135 0 178 92q41 90 41 244v149h287v-1073h-287v535q-62 -103 -135.5 -148t-186.5 -45q-108 0 -194 53q-88 54 -125 135q-41 82 -41 265v278z" />
    <glyph glyph-name="endash.0" unicode="&#x2013;" horiz-adv-x="1239" 
d="M0 674h1116v-238h-1116v238z" />
    <glyph glyph-name="emdash.0" unicode="&#x2014;" horiz-adv-x="2163" 
d="M0 674h2009v-238h-2009v238z" />
    <glyph glyph-name="quoteleft.0" unicode="&#x2018;" horiz-adv-x="553" 
d="M418 934h-279v209q0 315 279 352v-109q-68 -8 -109 -59t-41 -125h150v-268z" />
    <glyph glyph-name="quoteright.0" unicode="&#x2019;" horiz-adv-x="553" 
d="M139 1466h279v-204q0 -322 -279 -357v109q74 12 113 61t39 127h-152v264z" />
    <glyph glyph-name="quotesinglbase.0" unicode="&#x201a;" horiz-adv-x="1171" 
d="M135 1073h529q180 0 294 -72q113 -71 113 -194q0 -92 -43 -152q-45 -59 -143 -104q90 -33 145 -100.5t55 -155.5q0 -113 -94 -203q-96 -92 -252 -92h-604v1073zM422 207h229q148 0 148 121q0 116 -113 116h-264v-237zM422 866v-221h242q114 0 120 113q0 108 -116 108
h-246z" />
    <glyph glyph-name="quotedblleft.0" unicode="&#x201c;" horiz-adv-x="1014" 
d="M844 934h-283v209q0 315 283 352v-109q-72 -6 -113 -57q-41 -53 -41 -127h154v-268zM440 934h-274v209q0 315 274 352v-109q-67 -8 -106 -59t-39 -125h145v-268z" />
    <glyph glyph-name="quotedblright.0" unicode="&#x201d;" horiz-adv-x="1014" 
d="M166 1466h274v-204q0 -324 -274 -357v109q147 22 147 188h-147v264zM561 1466h283v-204q0 -322 -283 -357v109q156 22 156 188h-156v264z" />
    <glyph glyph-name="quotedblbase.0" unicode="&#x201e;" horiz-adv-x="1171" 
d="M1073 350q-2 -178 -133 -276q-131 -101 -367 -101q-135 0 -227 31q-113 37 -188 131q-78 92 -78 193q0 86 51 154.5t139 101.5l447 143q41 14 41 53q0 49 -43 80q-45 29 -127 29q-166 0 -189 -148h-278q18 119 55 174q51 91 158 138q104 47 246 47q200 0 329 -96
q127 -99 127 -250q0 -181 -225 -252l-313 -111q-86 -26 -105 -41q-20 -14 -20 -53q0 -47 55 -80q53 -33 137 -33q105 0 156 39t67 127h285z" />
    <glyph glyph-name="dagger" unicode="&#x2020;" 
d="M80 1073h346v393h264v-393h350v-248h-350v-1108h-264v1108h-346v248z" />
    <glyph glyph-name="daggerdbl.0" unicode="&#x2021;" horiz-adv-x="1171" 
d="M98 727q15 373 463 373q334 0 422 -172q23 -35 31 -82q8 -49 8 -141v-539q0 -109 51 -166h-289q-45 59 -49 143q-86 -98 -162 -133q-75 -37 -192 -37q-141 0 -229 90q-89 91 -89 232q0 137 72 219q70 80 215 111q170 39 381 53q0 108 -29 153q-30 43 -141 43
q-92 0 -137 -32q-47 -33 -62 -115h-264zM735 502q-186 -29 -205 -35q-104 -21 -141 -51q-39 -33 -39 -99q0 -51 43 -86q41 -34 105 -34q135 0 186 79q51 80 51 226z" />
    <glyph glyph-name="bullet.0" unicode="&#x2022;" 
d="M399 573q0 80 55.5 137.5t137.5 57.5q86 0 141 -57.5t55 -137.5q0 -73 -57 -133q-57 -59 -139 -59q-78 0 -135 59q-58 60 -58 133z" />
    <glyph glyph-name="ellipsis.0" unicode="&#x2026;" horiz-adv-x="1956" 
d="M184 297h305v-297h-305v297zM856 297h305v-297h-305v297zM1526 297h301v-297h-301v297z" />
    <glyph glyph-name="perthousand.0" unicode="&#x2030;" horiz-adv-x="1221" 
d="M86 -117h305q27 -57 66 -80q39 -22 108 -22q140 0 191 76q51 73 51 274v45q-47 -92 -123 -137q-76 -47 -186 -47q-187 0 -310 151q-125 152 -125 381q0 262 119 420q117 156 316 156q108 0 182 -43q72 -45 127 -146v162h287v-915q0 -181 -11 -252q-12 -74 -51 -139
q-117 -207 -467 -207q-198 0 -321 71q-125 72 -158 252zM354 543q0 -144 62 -224q59 -81 164 -81q104 0 161 81q58 80 58 228q0 145 -58.5 227t-167.5 82q-104 0 -161.5 -82t-57.5 -231z" />
    <glyph glyph-name="guilsinglleft.0" unicode="&#x2039;" horiz-adv-x="2118" 
d="M135 0v1466h299l598 -1022v1022h287v-1466h-287l-610 1022v-1022h-287zM1395 1161q0 150 90 246q88 96 233 96q156 0 244 -92t88 -250q0 -151 -90 -243.5t-242 -92.5q-149 0 -235 90q-88 91 -88 246zM1593 1161q0 -80 35 -127t94 -47q125 0 125 174q0 172 -125 172
q-59 0 -94 -45q-35 -47 -35 -127zM1399 573v144h647v-144h-647z" />
    <glyph glyph-name="guilsinglright.0" unicode="&#x203a;" horiz-adv-x="1425" 
d="M135 1466h1055v-264h-754v-313h690v-248h-690v-377h785v-264h-1086v1466zM377 1896h225v-258h-225v258zM754 1896h225v-258h-225v258z" />
    <glyph glyph-name="trademark.0" unicode="&#x2122;" horiz-adv-x="2091" 
d="M1933 1466v-878h-188v704l-268 -704h-117l-260 704v-704h-189v878h310l196 -516l211 516h305zM807 1466v-174h-268v-704h-211v704h-269v174h748z" />
    <glyph glyph-name="currency" unicode="&#x2219;" horiz-adv-x="668" 
d="M129 700h305v-297h-305v297z" />
    <glyph glyph-name="cent" 
d="M508 1292v174h133v-174q360 -28 408 -407h-277q-18 86 -45 123q-27 34 -86 47v-641q53 8 82 47q27 39 49 131h277q-66 -379 -408 -416v-203h-133v203q-213 25 -324 164q-112 137 -112 383q0 235 108 389q109 154 328 180zM508 1055q-158 -54 -158 -336q0 -270 158 -307
v643z" />
    <glyph glyph-name="sterling" horiz-adv-x="1198" 
d="M1024 973h-258q-12 252 -205 252q-80 0 -133 -54q-55 -55 -55 -139q0 -37 12 -76q10 -38 33 -84q22 -45 41 -84h313v-147h-270q26 -72 26 -121q0 -80 -34 -143q-37 -66 -125 -148q98 50 166 50q45 0 131 -31q84 -33 122 -33q97 0 173 94l112 -207q-49 -61 -131 -94
q-82 -35 -170 -35q-61 0 -194 41q-134 39 -205 39q-99 0 -199 -80l-115 185q109 84 158 159q47 76 47 168q0 62 -35 156h-180v147h125q-76 117 -76 263q0 184 127 301q127 114 328 114q225 0 348 -129q123 -131 123 -364z" />
    <glyph glyph-name="acute" horiz-adv-x="2136" 
d="M45 1085q0 381 260 381q88 0 146 -39q57 -38 84 -116q26 -80 26 -203q0 -203 -61 -297q-64 -94 -199 -94q-256 0 -256 368zM203 1081q0 -135 23.5 -188t78.5 -53t78 57q20 57 20 197q0 139 -20 192q-23 51 -78 51q-57 0 -80 -55q-22 -55 -22 -201zM991 1440h144
l-754 -1440h-139zM811 342q0 193 68 287q65 94 198 94t195 -84q61 -86 61 -270q0 -203 -61 -299q-64 -97 -199 -97q-262 0 -262 369zM973 342q0 -135 22 -186q21 -54 82 -54q53 0 73.5 55.5t20.5 192.5q0 142 -20 197q-21 53 -74 53q-59 0 -82 -55q-22 -58 -22 -203z
M1448 342q0 195 65 289q64 92 197 92q256 0 256 -354q0 -203 -63.5 -299.5t-198.5 -96.5q-256 0 -256 369zM1606 342q0 -137 22 -188q23 -52 82 -52q53 0 75.5 57.5t22.5 190.5q0 144 -22.5 197t-77.5 53q-57 0 -80 -55q-22 -58 -22 -203z" />
    <glyph glyph-name="notequal" horiz-adv-x="1239" 
d="M102 776v185h428l115 505h168l-113 -505h373v-185h-414l-34 -135h448v-188h-485l-185 -867h-174l189 867h-316v188h351l36 135h-387z" />
    <glyph glyph-name="AE" horiz-adv-x="1081" 
d="M436 0h-301v1466h819v-264h-518v-1202zM553 1921h299l-234 -297h-200z" />
    <glyph glyph-name="Oslash" horiz-adv-x="1198" 
d="M1073 350q-2 -178 -133 -276q-131 -101 -367 -101q-135 0 -227 31q-113 37 -188 131q-78 92 -78 193q0 86 51 154.5t139 101.5l447 143q41 14 41 53q0 49 -43 80q-45 29 -127 29q-166 0 -189 -148h-278q18 119 55 174q51 91 158 138q104 47 246 47q200 0 329 -96
q127 -99 127 -250q0 -181 -225 -252l-313 -111q-86 -26 -105 -41q-20 -14 -20 -53q0 -47 55 -80q53 -33 137 -33q105 0 156 39t67 127h285zM588 1526h297l-234 -297h-198z" />
    <glyph glyph-name="infinity" horiz-adv-x="1704" 
d="M1503 565q0 -98 -49 -182q-51 -86 -135 -135q-86 -51 -184 -51q-183 0 -287 143q-105 -143 -291 -143q-149 0 -258 108q-111 107 -111 256q0 103 49.5 189t135.5 135t184 49q86 0 164 -37q76 -37 123 -102q55 67 129 104q74 35 162 35q98 0 184 -49t135 -133
q49 -86 49 -187zM1341 561q0 86 -61 148q-63 59 -150 59q-86 0 -145 -59q-61 -62 -61 -144q0 -80 65 -139q64 -61 146 -61q79 0 142.5 59t63.5 137zM768 561q0 86 -61 148q-64 59 -154 59q-84 0 -143.5 -61.5t-59.5 -141.5q0 -78 61.5 -139t145.5 -61t147.5 59t63.5 137z
" />
    <glyph glyph-name="lessequal" horiz-adv-x="1221" 
d="M1073 219l-971 432v107l971 436v-158l-776 -331l776 -332v-154zM102 0v201h971v-201h-971z" />
    <glyph glyph-name="greaterequal" horiz-adv-x="1221" 
d="M98 219v154l772 332l-772 331v158l973 -436v-107zM1071 0h-973v201h973v-201z" />
    <glyph glyph-name="yen" horiz-adv-x="1221" 
d="M678 449v-449h-244v449h-321v151h290l-71 145h-260v156h188l-248 539h271l274 -660l279 660h268l-248 -539h193v-156h-265l-67 -145h293v-151h-332z" />
    <glyph glyph-name="mu" horiz-adv-x="1221" 
d="M135 -381v1454h273v-571q0 -305 217 -305q108 0 159 77q52 76 52 234v565h268v-1073h-268v125q-74 -152 -213 -152q-138 0 -215 144v-498h-273z" />
    <glyph glyph-name="partialdiff" horiz-adv-x="1311" 
d="M1165 535q0 -259 -147.5 -410.5t-403.5 -151.5q-254 0 -401 154q-150 152 -150 412q0 168 68 297q66 127 195 196q127 68 288 68q119 0 234 -72q0 82 -80 145.5t-162 63.5q-65 0 -137 -20q-74 -21 -107 -50l-79 234q102 69 317 69q318 0 442 -280q123 -283 123 -655z
M354 539q0 -158 70 -250t190 -92q121 0 190.5 90t69.5 248q0 155 -69.5 247t-190.5 92q-120 0 -190 -90t-70 -245z" />
    <glyph glyph-name="summation" horiz-adv-x="1171" 
d="M63 551h287v-72q0 -129 37 -184q37 -57 121 -57q106 0 141 63q33 61 33 250v915h301v-860q0 -194 -27 -330q-28 -135 -127 -219q-98 -84 -294 -84q-275 0 -396 158q-76 111 -76 363v57z" />
    <glyph glyph-name="product" horiz-adv-x="1587" 
d="M938 633h-453q19 -191 115 -293t244 -102q235 0 313 274h301q-22 -166 -112 -293q-181 -246 -506 -246q-312 0 -490 203q-180 201 -180 547q0 356 178 565q178 207 486 207q165 0 305 -63q137 -64 223 -181q84 -118 96 -272h-301q-65 250 -328 250q-143 0 -219 -82
q-78 -84 -112 -250h440v-264z" />
    <glyph glyph-name="pi" horiz-adv-x="1221" 
d="M403 483q17 -286 220 -286q77 0 122 45q46 45 68 157h287q-70 -426 -490 -426q-235 0 -368 147.5t-133 414.5q0 172 61 301q59 129 174 196q115 68 266 68q219 0 346 -105q125 -106 144 -305h-287q-35 189 -207 189q-149 0 -192 -211h254v-185h-265z" />
    <glyph glyph-name="ordmasculine" horiz-adv-x="506" 
d="M176 1466h152v-837l-152 -72v909zM328 -440h-152v839l152 72v-911z" />
    <glyph glyph-name="questiondown" horiz-adv-x="623" 
d="M12 -207q2 0 10.5 -4t14.5 -4q63 0 82 25q16 22 16 92v1171h287v-1100q0 -163 -10 -225q-13 -63 -50 -102q-79 -86 -241 -86q-19 2 -37 4h-72v229zM135 1202v264h287v-264h-287z" />
    <glyph glyph-name="exclamdown" horiz-adv-x="1470" 
d="M80 459h289q18 -84 59 -137q41 -56 104 -78q62 -25 158 -25q125 0 199 47q72 45 72 123q0 80 -121 123l-449 174q-282 107 -282 363q0 202 145 325q145 121 393 121q268 0 416 -123q145 -123 154 -350h-293q-19 119 -86.5 174t-186.5 55q-108 0 -178 -49t-70 -121
q0 -73 99 -112l459 -174q149 -58 225 -136.5t76 -228.5q0 -102 -48 -194q-47 -95 -137 -160q-76 -53 -168 -78t-223 -25q-364 0 -520 211q-41 56 -57 113q-17 55 -29 162z" />
    <glyph glyph-name="radical" horiz-adv-x="1356" 
d="M102 768l-43 125l426 180l179 -598q16 -78 49 -205q16 86 53 205l207 995h252l-369 -1470h-299l-297 840z" />
    <glyph glyph-name="approxequal" horiz-adv-x="1239" 
d="M999 512l78 -53q-86 -142 -129 -197q-45 -55 -135 -55q-45 0 -113 26q-67 27 -122 56q-56 26 -103 45q-47 16 -106 16q-60 0 -105 -35.5t-88 -117.5l-74 59q95 166 144 215t127 49q57 0 104 -16q47 -19 103 -45q55 -29 122 -56q68 -26 111 -26q64 0 100 29q35 26 86 106z
M999 860l78 -57q-80 -133 -127 -191.5t-137 -58.5q-55 0 -88 14q-35 13 -119 54q-84 38 -131 57q-47 16 -106 16q-58 0 -103 -35q-47 -34 -90 -116l-74 59q93 160 144 211q49 49 127 49q82 0 223 -69.5t217 -69.5q41 0 72 12q28 13 57 43q27 29 57 82z" />
    <glyph glyph-name="Delta" horiz-adv-x="1382" 
d="M418 0l-244 385l383 1081h344l369 -1075l-154 -391h-698zM449 246h575l-301 884z" />
    <glyph glyph-name="nonbreakingspace" horiz-adv-x="600" 
d="M135 1073h287v-1073h-287v1073z" />
    <glyph glyph-name="OE" horiz-adv-x="1266" 
d="M135 1073h287v-418l354 418h340l-399 -418l399 -655h-340l-237 471l-117 -125v-346h-287v1073zM588 1526h297l-234 -297h-198z" />
    <glyph glyph-name="fraction" horiz-adv-x="1081" 
d="M80 1073h346v393h264v-393h350v-248h-350v-444h350v-250h-350v-414h-264v414h-346v250h346v444h-346v248z" />
  </font>
</defs>
</svg>
